<mxfile host="Electron" modified="2024-05-27T08:18:40.811Z" agent="Mozilla/5.0 (X11; Linux x86_64) AppleWebKit/537.36 (KHTML, like Gecko) draw.io/24.4.0 Chrome/120.0.6099.109 Electron/28.1.0 Safari/537.36" etag="N3pegegpAkfPW5WNBTkF" version="24.4.0" type="device">
  <diagram id="C5RBs43oDa-KdzZeNtuy" name="Page-1">
    <mxGraphModel dx="3949" dy="2183" grid="1" gridSize="10" guides="1" tooltips="1" connect="1" arrows="1" fold="1" page="1" pageScale="1" pageWidth="827" pageHeight="1169" math="0" shadow="0">
      <root>
        <mxCell id="WIyWlLk6GJQsqaUBKTNV-0" />
        <mxCell id="WIyWlLk6GJQsqaUBKTNV-1" parent="WIyWlLk6GJQsqaUBKTNV-0" />
        <mxCell id="0ZzS8VXA7iMyPabbZtAn-40" style="edgeStyle=orthogonalEdgeStyle;rounded=0;orthogonalLoop=1;jettySize=auto;html=1;exitX=-0.016;exitY=0.294;exitDx=0;exitDy=0;entryX=0.25;entryY=0;entryDx=0;entryDy=0;exitPerimeter=0;endArrow=diamondThin;endFill=0;strokeWidth=1;startArrow=none;startFill=0;startSize=30;endSize=18;" parent="WIyWlLk6GJQsqaUBKTNV-1" source="0ZzS8VXA7iMyPabbZtAn-7" target="0ZzS8VXA7iMyPabbZtAn-16" edge="1">
          <mxGeometry relative="1" as="geometry">
            <Array as="points">
              <mxPoint x="327" y="300" />
              <mxPoint x="190" y="300" />
            </Array>
          </mxGeometry>
        </mxCell>
        <mxCell id="0ZzS8VXA7iMyPabbZtAn-4" value="Object" style="swimlane;fontStyle=1;align=center;verticalAlign=top;childLayout=stackLayout;horizontal=1;startSize=26;horizontalStack=0;resizeParent=1;resizeParentMax=0;resizeLast=0;collapsible=1;marginBottom=0;whiteSpace=wrap;html=1;" parent="WIyWlLk6GJQsqaUBKTNV-1" vertex="1">
          <mxGeometry x="330" y="230" width="160" height="170" as="geometry">
            <mxRectangle x="330" y="230" width="80" height="30" as="alternateBounds" />
          </mxGeometry>
        </mxCell>
        <mxCell id="0ZzS8VXA7iMyPabbZtAn-6" value="" style="line;strokeWidth=1;fillColor=none;align=left;verticalAlign=middle;spacingTop=-1;spacingLeft=3;spacingRight=3;rotatable=0;labelPosition=right;points=[];portConstraint=eastwest;strokeColor=inherit;" parent="0ZzS8VXA7iMyPabbZtAn-4" vertex="1">
          <mxGeometry y="26" width="160" height="8" as="geometry" />
        </mxCell>
        <mxCell id="0ZzS8VXA7iMyPabbZtAn-7" value="+ add()&lt;div&gt;+ remove()&lt;/div&gt;&lt;div&gt;+ transform()&lt;/div&gt;&lt;div&gt;+ isVisible()&lt;/div&gt;&lt;div&gt;+ isComposite()&lt;/div&gt;&lt;div&gt;+ begin()&lt;/div&gt;&lt;div&gt;+ end()&lt;/div&gt;&lt;div&gt;+ accept()&lt;/div&gt;&lt;div&gt;+ clone()&lt;/div&gt;" style="text;strokeColor=none;fillColor=none;align=left;verticalAlign=top;spacingLeft=4;spacingRight=4;overflow=hidden;rotatable=0;points=[[0,0.5],[1,0.5]];portConstraint=eastwest;whiteSpace=wrap;html=1;" parent="0ZzS8VXA7iMyPabbZtAn-4" vertex="1">
          <mxGeometry y="34" width="160" height="136" as="geometry" />
        </mxCell>
        <mxCell id="0ZzS8VXA7iMyPabbZtAn-23" value="" style="edgeStyle=orthogonalEdgeStyle;rounded=0;orthogonalLoop=1;jettySize=auto;html=1;endArrow=block;endFill=1;" parent="WIyWlLk6GJQsqaUBKTNV-1" source="0ZzS8VXA7iMyPabbZtAn-12" target="0ZzS8VXA7iMyPabbZtAn-7" edge="1">
          <mxGeometry relative="1" as="geometry">
            <Array as="points">
              <mxPoint x="410" y="410" />
              <mxPoint x="410" y="410" />
            </Array>
          </mxGeometry>
        </mxCell>
        <mxCell id="0ZzS8VXA7iMyPabbZtAn-12" value="VisibleObject&lt;div&gt;&lt;br&gt;&lt;/div&gt;" style="swimlane;fontStyle=1;align=center;verticalAlign=top;childLayout=stackLayout;horizontal=1;startSize=26;horizontalStack=0;resizeParent=1;resizeParentMax=0;resizeLast=0;collapsible=1;marginBottom=0;whiteSpace=wrap;html=1;" parent="WIyWlLk6GJQsqaUBKTNV-1" vertex="1">
          <mxGeometry x="330" y="450" width="160" height="70" as="geometry" />
        </mxCell>
        <mxCell id="0ZzS8VXA7iMyPabbZtAn-14" value="" style="line;strokeWidth=1;fillColor=none;align=left;verticalAlign=middle;spacingTop=-1;spacingLeft=3;spacingRight=3;rotatable=0;labelPosition=right;points=[];portConstraint=eastwest;strokeColor=inherit;" parent="0ZzS8VXA7iMyPabbZtAn-12" vertex="1">
          <mxGeometry y="26" width="160" height="8" as="geometry" />
        </mxCell>
        <mxCell id="0ZzS8VXA7iMyPabbZtAn-15" value="+ isVisible()&lt;div&gt;+ accept()&lt;br&gt;&lt;/div&gt;" style="text;strokeColor=none;fillColor=none;align=left;verticalAlign=top;spacingLeft=4;spacingRight=4;overflow=hidden;rotatable=0;points=[[0,0.5],[1,0.5]];portConstraint=eastwest;whiteSpace=wrap;html=1;" parent="0ZzS8VXA7iMyPabbZtAn-12" vertex="1">
          <mxGeometry y="34" width="160" height="36" as="geometry" />
        </mxCell>
        <mxCell id="0ZzS8VXA7iMyPabbZtAn-25" style="edgeStyle=orthogonalEdgeStyle;rounded=0;orthogonalLoop=1;jettySize=auto;html=1;entryX=0;entryY=0.5;entryDx=0;entryDy=0;" parent="WIyWlLk6GJQsqaUBKTNV-1" source="0ZzS8VXA7iMyPabbZtAn-16" target="0ZzS8VXA7iMyPabbZtAn-7" edge="1">
          <mxGeometry relative="1" as="geometry" />
        </mxCell>
        <mxCell id="0ZzS8VXA7iMyPabbZtAn-16" value="Composite&lt;div&gt;&lt;br&gt;&lt;/div&gt;" style="swimlane;fontStyle=1;align=center;verticalAlign=top;childLayout=stackLayout;horizontal=1;startSize=26;horizontalStack=0;resizeParent=1;resizeParentMax=0;resizeLast=0;collapsible=1;marginBottom=0;whiteSpace=wrap;html=1;" parent="WIyWlLk6GJQsqaUBKTNV-1" vertex="1">
          <mxGeometry x="150" y="450" width="160" height="160" as="geometry" />
        </mxCell>
        <mxCell id="0ZzS8VXA7iMyPabbZtAn-18" value="" style="line;strokeWidth=1;fillColor=none;align=left;verticalAlign=middle;spacingTop=-1;spacingLeft=3;spacingRight=3;rotatable=0;labelPosition=right;points=[];portConstraint=eastwest;strokeColor=inherit;" parent="0ZzS8VXA7iMyPabbZtAn-16" vertex="1">
          <mxGeometry y="26" width="160" height="8" as="geometry" />
        </mxCell>
        <mxCell id="0ZzS8VXA7iMyPabbZtAn-19" value="+ add()&lt;div&gt;+ remove(&lt;span style=&quot;background-color: initial;&quot;&gt;)&lt;/span&gt;&lt;/div&gt;&lt;div&gt;&lt;span style=&quot;background-color: initial;&quot;&gt;+ transform()&lt;/span&gt;&lt;/div&gt;&lt;div&gt;+ isComposite()&lt;/div&gt;&lt;div&gt;+ begin()&lt;/div&gt;&lt;div&gt;+ end()&lt;/div&gt;&lt;div&gt;+ accept()&lt;br&gt;&lt;/div&gt;&lt;div&gt;+ clone()&lt;/div&gt;" style="text;strokeColor=none;fillColor=none;align=left;verticalAlign=top;spacingLeft=4;spacingRight=4;overflow=hidden;rotatable=0;points=[[0,0.5],[1,0.5]];portConstraint=eastwest;whiteSpace=wrap;html=1;" parent="0ZzS8VXA7iMyPabbZtAn-16" vertex="1">
          <mxGeometry y="34" width="160" height="126" as="geometry" />
        </mxCell>
        <mxCell id="0ZzS8VXA7iMyPabbZtAn-24" style="edgeStyle=orthogonalEdgeStyle;rounded=0;orthogonalLoop=1;jettySize=auto;html=1;entryX=1;entryY=0.5;entryDx=0;entryDy=0;" parent="WIyWlLk6GJQsqaUBKTNV-1" source="0ZzS8VXA7iMyPabbZtAn-20" target="0ZzS8VXA7iMyPabbZtAn-7" edge="1">
          <mxGeometry relative="1" as="geometry" />
        </mxCell>
        <mxCell id="0ZzS8VXA7iMyPabbZtAn-20" value="InvisibleObject&lt;div&gt;&lt;br&gt;&lt;/div&gt;" style="swimlane;fontStyle=1;align=center;verticalAlign=top;childLayout=stackLayout;horizontal=1;startSize=26;horizontalStack=0;resizeParent=1;resizeParentMax=0;resizeLast=0;collapsible=1;marginBottom=0;whiteSpace=wrap;html=1;" parent="WIyWlLk6GJQsqaUBKTNV-1" vertex="1">
          <mxGeometry x="510" y="450" width="160" height="70" as="geometry" />
        </mxCell>
        <mxCell id="0ZzS8VXA7iMyPabbZtAn-21" value="" style="line;strokeWidth=1;fillColor=none;align=left;verticalAlign=middle;spacingTop=-1;spacingLeft=3;spacingRight=3;rotatable=0;labelPosition=right;points=[];portConstraint=eastwest;strokeColor=inherit;" parent="0ZzS8VXA7iMyPabbZtAn-20" vertex="1">
          <mxGeometry y="26" width="160" height="8" as="geometry" />
        </mxCell>
        <mxCell id="0ZzS8VXA7iMyPabbZtAn-22" value="+ isVisible()&lt;div&gt;+ accept()&lt;br&gt;&lt;/div&gt;" style="text;strokeColor=none;fillColor=none;align=left;verticalAlign=top;spacingLeft=4;spacingRight=4;overflow=hidden;rotatable=0;points=[[0,0.5],[1,0.5]];portConstraint=eastwest;whiteSpace=wrap;html=1;" parent="0ZzS8VXA7iMyPabbZtAn-20" vertex="1">
          <mxGeometry y="34" width="160" height="36" as="geometry" />
        </mxCell>
        <mxCell id="0ZzS8VXA7iMyPabbZtAn-26" value="BoneModel" style="swimlane;fontStyle=1;align=center;verticalAlign=top;childLayout=stackLayout;horizontal=1;startSize=26;horizontalStack=0;resizeParent=1;resizeParentMax=0;resizeLast=0;collapsible=1;marginBottom=0;whiteSpace=wrap;html=1;" parent="WIyWlLk6GJQsqaUBKTNV-1" vertex="1">
          <mxGeometry x="330" y="720" width="160" height="90" as="geometry" />
        </mxCell>
        <mxCell id="0ZzS8VXA7iMyPabbZtAn-28" value="" style="line;strokeWidth=1;fillColor=none;align=left;verticalAlign=middle;spacingTop=-1;spacingLeft=3;spacingRight=3;rotatable=0;labelPosition=right;points=[];portConstraint=eastwest;strokeColor=inherit;" parent="0ZzS8VXA7iMyPabbZtAn-26" vertex="1">
          <mxGeometry y="26" width="160" height="8" as="geometry" />
        </mxCell>
        <mxCell id="0ZzS8VXA7iMyPabbZtAn-29" value="+ transform()&lt;div&gt;+ accept()&lt;br&gt;&lt;/div&gt;&lt;div&gt;+ clone()&lt;/div&gt;" style="text;strokeColor=none;fillColor=none;align=left;verticalAlign=top;spacingLeft=4;spacingRight=4;overflow=hidden;rotatable=0;points=[[0,0.5],[1,0.5]];portConstraint=eastwest;whiteSpace=wrap;html=1;" parent="0ZzS8VXA7iMyPabbZtAn-26" vertex="1">
          <mxGeometry y="34" width="160" height="56" as="geometry" />
        </mxCell>
        <mxCell id="0ZzS8VXA7iMyPabbZtAn-30" value="Camera" style="swimlane;fontStyle=1;align=center;verticalAlign=top;childLayout=stackLayout;horizontal=1;startSize=26;horizontalStack=0;resizeParent=1;resizeParentMax=0;resizeLast=0;collapsible=1;marginBottom=0;whiteSpace=wrap;html=1;" parent="WIyWlLk6GJQsqaUBKTNV-1" vertex="1">
          <mxGeometry x="510" y="580" width="160" height="100" as="geometry" />
        </mxCell>
        <mxCell id="0ZzS8VXA7iMyPabbZtAn-32" value="" style="line;strokeWidth=1;fillColor=none;align=left;verticalAlign=middle;spacingTop=-1;spacingLeft=3;spacingRight=3;rotatable=0;labelPosition=right;points=[];portConstraint=eastwest;strokeColor=inherit;" parent="0ZzS8VXA7iMyPabbZtAn-30" vertex="1">
          <mxGeometry y="26" width="160" height="8" as="geometry" />
        </mxCell>
        <mxCell id="0ZzS8VXA7iMyPabbZtAn-33" value="+ transform()&lt;div&gt;+ isComposite()&lt;/div&gt;&lt;div&gt;+ accept()&lt;/div&gt;&lt;div&gt;+ clone()&lt;/div&gt;" style="text;strokeColor=none;fillColor=none;align=left;verticalAlign=top;spacingLeft=4;spacingRight=4;overflow=hidden;rotatable=0;points=[[0,0.5],[1,0.5]];portConstraint=eastwest;whiteSpace=wrap;html=1;" parent="0ZzS8VXA7iMyPabbZtAn-30" vertex="1">
          <mxGeometry y="34" width="160" height="66" as="geometry" />
        </mxCell>
        <mxCell id="0ZzS8VXA7iMyPabbZtAn-36" style="edgeStyle=orthogonalEdgeStyle;rounded=0;orthogonalLoop=1;jettySize=auto;html=1;entryX=0.503;entryY=1;entryDx=0;entryDy=0;entryPerimeter=0;" parent="WIyWlLk6GJQsqaUBKTNV-1" source="0ZzS8VXA7iMyPabbZtAn-30" target="0ZzS8VXA7iMyPabbZtAn-22" edge="1">
          <mxGeometry relative="1" as="geometry" />
        </mxCell>
        <mxCell id="0ZzS8VXA7iMyPabbZtAn-48" value="BaseModel&lt;div&gt;&lt;br&gt;&lt;/div&gt;" style="swimlane;fontStyle=1;align=center;verticalAlign=top;childLayout=stackLayout;horizontal=1;startSize=26;horizontalStack=0;resizeParent=1;resizeParentMax=0;resizeLast=0;collapsible=1;marginBottom=0;whiteSpace=wrap;html=1;" parent="WIyWlLk6GJQsqaUBKTNV-1" vertex="1">
          <mxGeometry x="330" y="620" width="160" height="70" as="geometry" />
        </mxCell>
        <mxCell id="0ZzS8VXA7iMyPabbZtAn-50" value="" style="line;strokeWidth=1;fillColor=none;align=left;verticalAlign=middle;spacingTop=-1;spacingLeft=3;spacingRight=3;rotatable=0;labelPosition=right;points=[];portConstraint=eastwest;strokeColor=inherit;" parent="0ZzS8VXA7iMyPabbZtAn-48" vertex="1">
          <mxGeometry y="26" width="160" height="8" as="geometry" />
        </mxCell>
        <mxCell id="0ZzS8VXA7iMyPabbZtAn-51" value="+ isComposite()&lt;div&gt;+ accept()&lt;br&gt;&lt;/div&gt;" style="text;strokeColor=none;fillColor=none;align=left;verticalAlign=top;spacingLeft=4;spacingRight=4;overflow=hidden;rotatable=0;points=[[0,0.5],[1,0.5]];portConstraint=eastwest;whiteSpace=wrap;html=1;" parent="0ZzS8VXA7iMyPabbZtAn-48" vertex="1">
          <mxGeometry y="34" width="160" height="36" as="geometry" />
        </mxCell>
        <mxCell id="0ZzS8VXA7iMyPabbZtAn-52" style="edgeStyle=orthogonalEdgeStyle;rounded=0;orthogonalLoop=1;jettySize=auto;html=1;exitX=0.5;exitY=0;exitDx=0;exitDy=0;entryX=0.503;entryY=1;entryDx=0;entryDy=0;entryPerimeter=0;" parent="WIyWlLk6GJQsqaUBKTNV-1" source="0ZzS8VXA7iMyPabbZtAn-48" target="0ZzS8VXA7iMyPabbZtAn-15" edge="1">
          <mxGeometry relative="1" as="geometry" />
        </mxCell>
        <mxCell id="0ZzS8VXA7iMyPabbZtAn-53" style="edgeStyle=orthogonalEdgeStyle;rounded=0;orthogonalLoop=1;jettySize=auto;html=1;exitX=0.5;exitY=0;exitDx=0;exitDy=0;entryX=0.5;entryY=1.038;entryDx=0;entryDy=0;entryPerimeter=0;" parent="WIyWlLk6GJQsqaUBKTNV-1" source="0ZzS8VXA7iMyPabbZtAn-26" target="0ZzS8VXA7iMyPabbZtAn-51" edge="1">
          <mxGeometry relative="1" as="geometry">
            <Array as="points">
              <mxPoint x="410" y="710" />
              <mxPoint x="410" y="710" />
            </Array>
          </mxGeometry>
        </mxCell>
        <mxCell id="0ZzS8VXA7iMyPabbZtAn-56" value="ModelStructure&lt;div&gt;&lt;br&gt;&lt;/div&gt;" style="swimlane;fontStyle=1;align=center;verticalAlign=top;childLayout=stackLayout;horizontal=1;startSize=26;horizontalStack=0;resizeParent=1;resizeParentMax=0;resizeLast=0;collapsible=1;marginBottom=0;whiteSpace=wrap;html=1;" parent="WIyWlLk6GJQsqaUBKTNV-1" vertex="1">
          <mxGeometry x="330" y="840" width="160" height="140" as="geometry" />
        </mxCell>
        <mxCell id="0ZzS8VXA7iMyPabbZtAn-58" value="" style="line;strokeWidth=1;fillColor=none;align=left;verticalAlign=middle;spacingTop=-1;spacingLeft=3;spacingRight=3;rotatable=0;labelPosition=right;points=[];portConstraint=eastwest;strokeColor=inherit;" parent="0ZzS8VXA7iMyPabbZtAn-56" vertex="1">
          <mxGeometry y="26" width="160" height="8" as="geometry" />
        </mxCell>
        <mxCell id="0ZzS8VXA7iMyPabbZtAn-59" value="+ addEdge()&lt;div&gt;+ addPoint()&lt;/div&gt;&lt;div&gt;+ getPoints()&lt;/div&gt;&lt;div&gt;+ getEdges()&lt;/div&gt;&lt;div&gt;+ getCenter()&lt;/div&gt;&lt;div&gt;+ transform()&lt;/div&gt;&lt;div&gt;+ clone()&lt;/div&gt;" style="text;strokeColor=none;fillColor=none;align=left;verticalAlign=top;spacingLeft=4;spacingRight=4;overflow=hidden;rotatable=0;points=[[0,0.5],[1,0.5]];portConstraint=eastwest;whiteSpace=wrap;html=1;" parent="0ZzS8VXA7iMyPabbZtAn-56" vertex="1">
          <mxGeometry y="34" width="160" height="106" as="geometry" />
        </mxCell>
        <mxCell id="0ZzS8VXA7iMyPabbZtAn-72" style="edgeStyle=orthogonalEdgeStyle;rounded=0;orthogonalLoop=1;jettySize=auto;html=1;exitX=0.5;exitY=0;exitDx=0;exitDy=0;entryX=0;entryY=0.5;entryDx=0;entryDy=0;endArrow=block;endFill=1;endSize=6;" parent="WIyWlLk6GJQsqaUBKTNV-1" source="0ZzS8VXA7iMyPabbZtAn-60" target="0ZzS8VXA7iMyPabbZtAn-59" edge="1">
          <mxGeometry relative="1" as="geometry" />
        </mxCell>
        <mxCell id="0ZzS8VXA7iMyPabbZtAn-60" value="ListModelStructure" style="swimlane;fontStyle=1;align=center;verticalAlign=top;childLayout=stackLayout;horizontal=1;startSize=26;horizontalStack=0;resizeParent=1;resizeParentMax=0;resizeLast=0;collapsible=1;marginBottom=0;whiteSpace=wrap;html=1;" parent="WIyWlLk6GJQsqaUBKTNV-1" vertex="1">
          <mxGeometry x="170" y="980" width="160" height="140" as="geometry" />
        </mxCell>
        <mxCell id="0ZzS8VXA7iMyPabbZtAn-62" value="" style="line;strokeWidth=1;fillColor=none;align=left;verticalAlign=middle;spacingTop=-1;spacingLeft=3;spacingRight=3;rotatable=0;labelPosition=right;points=[];portConstraint=eastwest;strokeColor=inherit;" parent="0ZzS8VXA7iMyPabbZtAn-60" vertex="1">
          <mxGeometry y="26" width="160" height="8" as="geometry" />
        </mxCell>
        <mxCell id="0ZzS8VXA7iMyPabbZtAn-63" value="+ addEdge()&lt;div&gt;+ addPoint()&lt;/div&gt;&lt;div&gt;+ getPoints()&lt;/div&gt;&lt;div&gt;+ getEdges()&lt;/div&gt;&lt;div&gt;+ getCenter()&lt;/div&gt;&lt;div&gt;+ transform()&lt;/div&gt;&lt;div&gt;+ clone()&lt;/div&gt;" style="text;strokeColor=none;fillColor=none;align=left;verticalAlign=top;spacingLeft=4;spacingRight=4;overflow=hidden;rotatable=0;points=[[0,0.5],[1,0.5]];portConstraint=eastwest;whiteSpace=wrap;html=1;" parent="0ZzS8VXA7iMyPabbZtAn-60" vertex="1">
          <mxGeometry y="34" width="160" height="106" as="geometry" />
        </mxCell>
        <mxCell id="0ZzS8VXA7iMyPabbZtAn-71" style="edgeStyle=orthogonalEdgeStyle;rounded=0;orthogonalLoop=1;jettySize=auto;html=1;exitX=0.5;exitY=0;exitDx=0;exitDy=0;entryX=1;entryY=0.5;entryDx=0;entryDy=0;endSize=6;endArrow=block;endFill=1;" parent="WIyWlLk6GJQsqaUBKTNV-1" source="0ZzS8VXA7iMyPabbZtAn-64" target="0ZzS8VXA7iMyPabbZtAn-59" edge="1">
          <mxGeometry relative="1" as="geometry" />
        </mxCell>
        <mxCell id="0ZzS8VXA7iMyPabbZtAn-64" value="MatrixModelStructure" style="swimlane;fontStyle=1;align=center;verticalAlign=top;childLayout=stackLayout;horizontal=1;startSize=26;horizontalStack=0;resizeParent=1;resizeParentMax=0;resizeLast=0;collapsible=1;marginBottom=0;whiteSpace=wrap;html=1;" parent="WIyWlLk6GJQsqaUBKTNV-1" vertex="1">
          <mxGeometry x="490" y="980" width="160" height="140" as="geometry" />
        </mxCell>
        <mxCell id="0ZzS8VXA7iMyPabbZtAn-66" value="" style="line;strokeWidth=1;fillColor=none;align=left;verticalAlign=middle;spacingTop=-1;spacingLeft=3;spacingRight=3;rotatable=0;labelPosition=right;points=[];portConstraint=eastwest;strokeColor=inherit;" parent="0ZzS8VXA7iMyPabbZtAn-64" vertex="1">
          <mxGeometry y="26" width="160" height="8" as="geometry" />
        </mxCell>
        <mxCell id="0ZzS8VXA7iMyPabbZtAn-67" value="+ addEdge()&lt;div&gt;+ addPoint()&lt;/div&gt;&lt;div&gt;+ getPoints()&lt;/div&gt;&lt;div&gt;+ getEdges()&lt;/div&gt;&lt;div&gt;+ getCenter()&lt;/div&gt;&lt;div&gt;+ transform()&lt;/div&gt;&lt;div&gt;+ clone()&lt;/div&gt;" style="text;strokeColor=none;fillColor=none;align=left;verticalAlign=top;spacingLeft=4;spacingRight=4;overflow=hidden;rotatable=0;points=[[0,0.5],[1,0.5]];portConstraint=eastwest;whiteSpace=wrap;html=1;" parent="0ZzS8VXA7iMyPabbZtAn-64" vertex="1">
          <mxGeometry y="34" width="160" height="106" as="geometry" />
        </mxCell>
        <mxCell id="msSt4nV4h8XotmUGHWJ2-1" style="edgeStyle=orthogonalEdgeStyle;rounded=0;orthogonalLoop=1;jettySize=auto;html=1;exitX=0.5;exitY=0;exitDx=0;exitDy=0;entryX=0.499;entryY=1.011;entryDx=0;entryDy=0;entryPerimeter=0;endArrow=diamondThin;endFill=0;endSize=18;" parent="WIyWlLk6GJQsqaUBKTNV-1" source="0ZzS8VXA7iMyPabbZtAn-56" target="0ZzS8VXA7iMyPabbZtAn-29" edge="1">
          <mxGeometry relative="1" as="geometry" />
        </mxCell>
        <mxCell id="msSt4nV4h8XotmUGHWJ2-25" style="edgeStyle=orthogonalEdgeStyle;rounded=1;orthogonalLoop=1;jettySize=auto;html=1;entryX=0.665;entryY=0.741;entryDx=0;entryDy=0;entryPerimeter=0;curved=0;endArrow=none;endFill=0;" parent="WIyWlLk6GJQsqaUBKTNV-1" source="msSt4nV4h8XotmUGHWJ2-2" target="msSt4nV4h8XotmUGHWJ2-17" edge="1">
          <mxGeometry relative="1" as="geometry">
            <mxPoint x="430" y="1180" as="targetPoint" />
            <Array as="points">
              <mxPoint x="480" y="1190" />
              <mxPoint x="250" y="1190" />
            </Array>
          </mxGeometry>
        </mxCell>
        <mxCell id="msSt4nV4h8XotmUGHWJ2-2" value="Edge&lt;div&gt;&lt;br&gt;&lt;/div&gt;" style="swimlane;fontStyle=1;align=center;verticalAlign=top;childLayout=stackLayout;horizontal=1;startSize=26;horizontalStack=0;resizeParent=1;resizeParentMax=0;resizeLast=0;collapsible=1;marginBottom=0;whiteSpace=wrap;html=1;" parent="WIyWlLk6GJQsqaUBKTNV-1" vertex="1">
          <mxGeometry x="400" y="1210" width="160" height="100" as="geometry" />
        </mxCell>
        <mxCell id="msSt4nV4h8XotmUGHWJ2-4" value="" style="line;strokeWidth=1;fillColor=none;align=left;verticalAlign=middle;spacingTop=-1;spacingLeft=3;spacingRight=3;rotatable=0;labelPosition=right;points=[];portConstraint=eastwest;strokeColor=inherit;" parent="msSt4nV4h8XotmUGHWJ2-2" vertex="1">
          <mxGeometry y="26" width="160" height="8" as="geometry" />
        </mxCell>
        <mxCell id="msSt4nV4h8XotmUGHWJ2-5" value="+ getFirst()&lt;div&gt;+ getSecond()&lt;/div&gt;&lt;div&gt;+ setFirst()&lt;/div&gt;&lt;div&gt;+ setSecond()&lt;/div&gt;" style="text;strokeColor=none;fillColor=none;align=left;verticalAlign=top;spacingLeft=4;spacingRight=4;overflow=hidden;rotatable=0;points=[[0,0.5],[1,0.5]];portConstraint=eastwest;whiteSpace=wrap;html=1;" parent="msSt4nV4h8XotmUGHWJ2-2" vertex="1">
          <mxGeometry y="34" width="160" height="66" as="geometry" />
        </mxCell>
        <mxCell id="msSt4nV4h8XotmUGHWJ2-6" value="Point&lt;div&gt;&lt;br&gt;&lt;/div&gt;" style="swimlane;fontStyle=1;align=center;verticalAlign=top;childLayout=stackLayout;horizontal=1;startSize=26;horizontalStack=0;resizeParent=1;resizeParentMax=0;resizeLast=0;collapsible=1;marginBottom=0;whiteSpace=wrap;html=1;" parent="WIyWlLk6GJQsqaUBKTNV-1" vertex="1">
          <mxGeometry x="80" y="1210" width="160" height="120" as="geometry" />
        </mxCell>
        <mxCell id="msSt4nV4h8XotmUGHWJ2-8" value="" style="line;strokeWidth=1;fillColor=none;align=left;verticalAlign=middle;spacingTop=-1;spacingLeft=3;spacingRight=3;rotatable=0;labelPosition=right;points=[];portConstraint=eastwest;strokeColor=inherit;" parent="msSt4nV4h8XotmUGHWJ2-6" vertex="1">
          <mxGeometry y="26" width="160" height="8" as="geometry" />
        </mxCell>
        <mxCell id="msSt4nV4h8XotmUGHWJ2-9" value="+ get()&lt;div&gt;+ set()&lt;/div&gt;&lt;div&gt;+ transform()&lt;/div&gt;" style="text;strokeColor=none;fillColor=none;align=left;verticalAlign=top;spacingLeft=4;spacingRight=4;overflow=hidden;rotatable=0;points=[[0,0.5],[1,0.5]];portConstraint=eastwest;whiteSpace=wrap;html=1;" parent="msSt4nV4h8XotmUGHWJ2-6" vertex="1">
          <mxGeometry y="34" width="160" height="86" as="geometry" />
        </mxCell>
        <mxCell id="msSt4nV4h8XotmUGHWJ2-11" style="edgeStyle=orthogonalEdgeStyle;rounded=0;orthogonalLoop=1;jettySize=auto;html=1;exitX=1;exitY=0.5;exitDx=0;exitDy=0;entryX=0;entryY=0.5;entryDx=0;entryDy=0;startSize=18;endSize=18;endArrow=diamondThin;endFill=1;" parent="WIyWlLk6GJQsqaUBKTNV-1" edge="1">
          <mxGeometry relative="1" as="geometry">
            <mxPoint x="239.99999999999977" y="1249" as="sourcePoint" />
            <mxPoint x="400" y="1249" as="targetPoint" />
          </mxGeometry>
        </mxCell>
        <mxCell id="msSt4nV4h8XotmUGHWJ2-17" value="" style="shape=waypoint;sketch=0;fillStyle=solid;size=6;pointerEvents=1;points=[];fillColor=none;resizable=0;rotatable=0;perimeter=centerPerimeter;snapToPoint=1;" parent="WIyWlLk6GJQsqaUBKTNV-1" vertex="1">
          <mxGeometry x="240" y="1149" width="20" height="20" as="geometry" />
        </mxCell>
        <mxCell id="msSt4nV4h8XotmUGHWJ2-22" style="edgeStyle=orthogonalEdgeStyle;rounded=0;orthogonalLoop=1;jettySize=auto;html=1;exitX=0.579;exitY=1.024;exitDx=0;exitDy=0;exitPerimeter=0;endArrow=diamondThin;endFill=1;endSize=18;entryX=0.675;entryY=1.034;entryDx=0;entryDy=0;entryPerimeter=0;" parent="WIyWlLk6GJQsqaUBKTNV-1" source="msSt4nV4h8XotmUGHWJ2-9" target="0ZzS8VXA7iMyPabbZtAn-67" edge="1">
          <mxGeometry relative="1" as="geometry">
            <mxPoint x="598" y="1180" as="targetPoint" />
            <mxPoint x="170.0000000000001" y="1402.2040000000002" as="sourcePoint" />
            <Array as="points">
              <mxPoint x="170" y="1332" />
              <mxPoint x="170" y="1379" />
              <mxPoint x="598" y="1379" />
            </Array>
          </mxGeometry>
        </mxCell>
        <mxCell id="msSt4nV4h8XotmUGHWJ2-24" style="edgeStyle=orthogonalEdgeStyle;rounded=1;orthogonalLoop=1;jettySize=auto;html=1;entryX=0.106;entryY=0.712;entryDx=0;entryDy=0;entryPerimeter=0;curved=0;endArrow=none;endFill=0;" parent="WIyWlLk6GJQsqaUBKTNV-1" source="msSt4nV4h8XotmUGHWJ2-6" target="msSt4nV4h8XotmUGHWJ2-17" edge="1">
          <mxGeometry relative="1" as="geometry" />
        </mxCell>
        <mxCell id="msSt4nV4h8XotmUGHWJ2-26" style="edgeStyle=orthogonalEdgeStyle;rounded=0;orthogonalLoop=1;jettySize=auto;html=1;entryX=0.506;entryY=1.008;entryDx=0;entryDy=0;entryPerimeter=0;endArrow=diamondThin;endFill=1;endSize=18;" parent="WIyWlLk6GJQsqaUBKTNV-1" source="msSt4nV4h8XotmUGHWJ2-17" target="0ZzS8VXA7iMyPabbZtAn-63" edge="1">
          <mxGeometry relative="1" as="geometry" />
        </mxCell>
        <mxCell id="2jpewVYhPisrA6c5Opwv-6" style="edgeStyle=orthogonalEdgeStyle;rounded=0;orthogonalLoop=1;jettySize=auto;html=1;entryX=1;entryY=0.5;entryDx=0;entryDy=0;endArrow=diamondThin;endFill=0;endSize=18;" parent="WIyWlLk6GJQsqaUBKTNV-1" source="msSt4nV4h8XotmUGHWJ2-31" target="2jpewVYhPisrA6c5Opwv-3" edge="1">
          <mxGeometry relative="1" as="geometry" />
        </mxCell>
        <mxCell id="msSt4nV4h8XotmUGHWJ2-31" value="BaseBoneModelBuilder" style="swimlane;fontStyle=1;align=center;verticalAlign=top;childLayout=stackLayout;horizontal=1;startSize=26;horizontalStack=0;resizeParent=1;resizeParentMax=0;resizeLast=0;collapsible=1;marginBottom=0;whiteSpace=wrap;html=1;" parent="WIyWlLk6GJQsqaUBKTNV-1" vertex="1">
          <mxGeometry x="-1090" y="1165" width="160" height="130" as="geometry" />
        </mxCell>
        <mxCell id="msSt4nV4h8XotmUGHWJ2-33" value="" style="line;strokeWidth=1;fillColor=none;align=left;verticalAlign=middle;spacingTop=-1;spacingLeft=3;spacingRight=3;rotatable=0;labelPosition=right;points=[];portConstraint=eastwest;strokeColor=inherit;" parent="msSt4nV4h8XotmUGHWJ2-31" vertex="1">
          <mxGeometry y="26" width="160" height="8" as="geometry" />
        </mxCell>
        <mxCell id="msSt4nV4h8XotmUGHWJ2-34" value="&lt;div&gt;&lt;div&gt;&lt;span style=&quot;background-color: initial;&quot;&gt;+ get()&lt;/span&gt;&lt;br&gt;&lt;/div&gt;&lt;/div&gt;+ buildPoint()&lt;div&gt;+ buildEdge()&lt;/div&gt;&lt;div&gt;+ buildCenter()&lt;br&gt;&lt;/div&gt;" style="text;strokeColor=none;fillColor=none;align=left;verticalAlign=top;spacingLeft=4;spacingRight=4;overflow=hidden;rotatable=0;points=[[0,0.5],[1,0.5]];portConstraint=eastwest;whiteSpace=wrap;html=1;" parent="msSt4nV4h8XotmUGHWJ2-31" vertex="1">
          <mxGeometry y="34" width="160" height="96" as="geometry" />
        </mxCell>
        <mxCell id="msSt4nV4h8XotmUGHWJ2-48" style="edgeStyle=orthogonalEdgeStyle;rounded=1;orthogonalLoop=1;jettySize=auto;html=1;exitX=0.5;exitY=0;exitDx=0;exitDy=0;curved=0;endArrow=none;endFill=0;" parent="WIyWlLk6GJQsqaUBKTNV-1" source="msSt4nV4h8XotmUGHWJ2-36" edge="1">
          <mxGeometry relative="1" as="geometry">
            <Array as="points">
              <mxPoint x="-1130" y="1370" />
              <mxPoint x="-1010" y="1370" />
            </Array>
            <mxPoint x="-1010" y="1340" as="targetPoint" />
          </mxGeometry>
        </mxCell>
        <mxCell id="msSt4nV4h8XotmUGHWJ2-36" value="MatrixBoneModelBuilder" style="swimlane;fontStyle=1;align=center;verticalAlign=top;childLayout=stackLayout;horizontal=1;startSize=26;horizontalStack=0;resizeParent=1;resizeParentMax=0;resizeLast=0;collapsible=1;marginBottom=0;whiteSpace=wrap;html=1;" parent="WIyWlLk6GJQsqaUBKTNV-1" vertex="1">
          <mxGeometry x="-1210" y="1379" width="160" height="130" as="geometry" />
        </mxCell>
        <mxCell id="msSt4nV4h8XotmUGHWJ2-38" value="" style="line;strokeWidth=1;fillColor=none;align=left;verticalAlign=middle;spacingTop=-1;spacingLeft=3;spacingRight=3;rotatable=0;labelPosition=right;points=[];portConstraint=eastwest;strokeColor=inherit;" parent="msSt4nV4h8XotmUGHWJ2-36" vertex="1">
          <mxGeometry y="26" width="160" height="8" as="geometry" />
        </mxCell>
        <mxCell id="msSt4nV4h8XotmUGHWJ2-39" value="&lt;div&gt;&lt;div&gt;&lt;span style=&quot;background-color: initial;&quot;&gt;+ get()&lt;/span&gt;&lt;br&gt;&lt;/div&gt;&lt;/div&gt;+ buildPoint()&lt;div&gt;+ buildEdge()&lt;/div&gt;&lt;div&gt;+ buildCenter()&lt;br&gt;&lt;/div&gt;" style="text;strokeColor=none;fillColor=none;align=left;verticalAlign=top;spacingLeft=4;spacingRight=4;overflow=hidden;rotatable=0;points=[[0,0.5],[1,0.5]];portConstraint=eastwest;whiteSpace=wrap;html=1;" parent="msSt4nV4h8XotmUGHWJ2-36" vertex="1">
          <mxGeometry y="34" width="160" height="96" as="geometry" />
        </mxCell>
        <mxCell id="msSt4nV4h8XotmUGHWJ2-40" value="ListBoneModelBuilder" style="swimlane;fontStyle=1;align=center;verticalAlign=top;childLayout=stackLayout;horizontal=1;startSize=26;horizontalStack=0;resizeParent=1;resizeParentMax=0;resizeLast=0;collapsible=1;marginBottom=0;whiteSpace=wrap;html=1;" parent="WIyWlLk6GJQsqaUBKTNV-1" vertex="1">
          <mxGeometry x="-970" y="1379" width="160" height="140" as="geometry" />
        </mxCell>
        <mxCell id="msSt4nV4h8XotmUGHWJ2-42" value="" style="line;strokeWidth=1;fillColor=none;align=left;verticalAlign=middle;spacingTop=-1;spacingLeft=3;spacingRight=3;rotatable=0;labelPosition=right;points=[];portConstraint=eastwest;strokeColor=inherit;" parent="msSt4nV4h8XotmUGHWJ2-40" vertex="1">
          <mxGeometry y="26" width="160" height="8" as="geometry" />
        </mxCell>
        <mxCell id="msSt4nV4h8XotmUGHWJ2-43" value="&lt;div&gt;&lt;span style=&quot;background-color: initial;&quot;&gt;+ get()&lt;/span&gt;&lt;br&gt;&lt;/div&gt;+ buildPoint()&lt;div&gt;+ buildEdge()&lt;/div&gt;&lt;div&gt;+ buildCenter()&lt;/div&gt;" style="text;strokeColor=none;fillColor=none;align=left;verticalAlign=top;spacingLeft=4;spacingRight=4;overflow=hidden;rotatable=0;points=[[0,0.5],[1,0.5]];portConstraint=eastwest;whiteSpace=wrap;html=1;" parent="msSt4nV4h8XotmUGHWJ2-40" vertex="1">
          <mxGeometry y="34" width="160" height="106" as="geometry" />
        </mxCell>
        <mxCell id="msSt4nV4h8XotmUGHWJ2-47" style="edgeStyle=orthogonalEdgeStyle;rounded=1;orthogonalLoop=1;jettySize=auto;html=1;exitX=0.5;exitY=0;exitDx=0;exitDy=0;entryX=0.756;entryY=0.338;entryDx=0;entryDy=0;entryPerimeter=0;curved=0;endArrow=none;endFill=0;" parent="WIyWlLk6GJQsqaUBKTNV-1" source="msSt4nV4h8XotmUGHWJ2-40" edge="1">
          <mxGeometry relative="1" as="geometry">
            <Array as="points">
              <mxPoint x="-890" y="1370" />
              <mxPoint x="-1010" y="1370" />
            </Array>
            <mxPoint x="-1010" y="1340" as="targetPoint" />
          </mxGeometry>
        </mxCell>
        <mxCell id="msSt4nV4h8XotmUGHWJ2-49" style="edgeStyle=orthogonalEdgeStyle;rounded=0;orthogonalLoop=1;jettySize=auto;html=1;entryX=0.495;entryY=0.994;entryDx=0;entryDy=0;entryPerimeter=0;" parent="WIyWlLk6GJQsqaUBKTNV-1" target="msSt4nV4h8XotmUGHWJ2-34" edge="1">
          <mxGeometry relative="1" as="geometry">
            <mxPoint x="-1010" y="1340" as="sourcePoint" />
          </mxGeometry>
        </mxCell>
        <mxCell id="msSt4nV4h8XotmUGHWJ2-70" value="ListBoneModelDirector" style="swimlane;fontStyle=1;align=center;verticalAlign=top;childLayout=stackLayout;horizontal=1;startSize=26;horizontalStack=0;resizeParent=1;resizeParentMax=0;resizeLast=0;collapsible=1;marginBottom=0;whiteSpace=wrap;html=1;" parent="WIyWlLk6GJQsqaUBKTNV-1" vertex="1">
          <mxGeometry x="-1410" y="990" width="160" height="80" as="geometry" />
        </mxCell>
        <mxCell id="msSt4nV4h8XotmUGHWJ2-72" value="" style="line;strokeWidth=1;fillColor=none;align=left;verticalAlign=middle;spacingTop=-1;spacingLeft=3;spacingRight=3;rotatable=0;labelPosition=right;points=[];portConstraint=eastwest;strokeColor=inherit;" parent="msSt4nV4h8XotmUGHWJ2-70" vertex="1">
          <mxGeometry y="26" width="160" height="8" as="geometry" />
        </mxCell>
        <mxCell id="msSt4nV4h8XotmUGHWJ2-73" value="&lt;div&gt;+ create()&lt;/div&gt;&lt;div&gt;+ get()&lt;/div&gt;" style="text;strokeColor=none;fillColor=none;align=left;verticalAlign=top;spacingLeft=4;spacingRight=4;overflow=hidden;rotatable=0;points=[[0,0.5],[1,0.5]];portConstraint=eastwest;whiteSpace=wrap;html=1;" parent="msSt4nV4h8XotmUGHWJ2-70" vertex="1">
          <mxGeometry y="34" width="160" height="46" as="geometry" />
        </mxCell>
        <mxCell id="msSt4nV4h8XotmUGHWJ2-74" value="Scene&lt;div&gt;&lt;br&gt;&lt;/div&gt;" style="swimlane;fontStyle=1;align=center;verticalAlign=top;childLayout=stackLayout;horizontal=1;startSize=26;horizontalStack=0;resizeParent=1;resizeParentMax=0;resizeLast=0;collapsible=1;marginBottom=0;whiteSpace=wrap;html=1;" parent="WIyWlLk6GJQsqaUBKTNV-1" vertex="1">
          <mxGeometry x="-80" y="346" width="160" height="150" as="geometry" />
        </mxCell>
        <mxCell id="msSt4nV4h8XotmUGHWJ2-76" value="" style="line;strokeWidth=1;fillColor=none;align=left;verticalAlign=middle;spacingTop=-1;spacingLeft=3;spacingRight=3;rotatable=0;labelPosition=right;points=[];portConstraint=eastwest;strokeColor=inherit;" parent="msSt4nV4h8XotmUGHWJ2-74" vertex="1">
          <mxGeometry y="26" width="160" height="8" as="geometry" />
        </mxCell>
        <mxCell id="msSt4nV4h8XotmUGHWJ2-77" value="&lt;div&gt;+ addObject()&lt;/div&gt;&lt;div&gt;+ removeObject()&lt;/div&gt;&lt;div&gt;+ getObject()&lt;/div&gt;&lt;div&gt;+ begin()&lt;/div&gt;&lt;div&gt;+ end()&lt;/div&gt;&lt;div&gt;+ accept()&lt;/div&gt;&lt;div&gt;+ clone()&lt;/div&gt;" style="text;strokeColor=none;fillColor=none;align=left;verticalAlign=top;spacingLeft=4;spacingRight=4;overflow=hidden;rotatable=0;points=[[0,0.5],[1,0.5]];portConstraint=eastwest;whiteSpace=wrap;html=1;" parent="msSt4nV4h8XotmUGHWJ2-74" vertex="1">
          <mxGeometry y="34" width="160" height="116" as="geometry" />
        </mxCell>
        <mxCell id="VUxs2TTutxwEe3Bsk4AE-2" style="edgeStyle=orthogonalEdgeStyle;rounded=0;orthogonalLoop=1;jettySize=auto;html=1;exitX=0;exitY=0.5;exitDx=0;exitDy=0;endSize=18;endArrow=diamondThin;endFill=0;" parent="WIyWlLk6GJQsqaUBKTNV-1" source="0ZzS8VXA7iMyPabbZtAn-19" target="msSt4nV4h8XotmUGHWJ2-77" edge="1">
          <mxGeometry relative="1" as="geometry">
            <mxPoint x="1" y="387" as="targetPoint" />
            <Array as="points">
              <mxPoint x="1" y="532" />
            </Array>
          </mxGeometry>
        </mxCell>
        <mxCell id="VUxs2TTutxwEe3Bsk4AE-40" style="edgeStyle=orthogonalEdgeStyle;rounded=1;orthogonalLoop=1;jettySize=auto;html=1;exitX=0.75;exitY=0;exitDx=0;exitDy=0;endArrow=none;endFill=0;curved=0;" parent="WIyWlLk6GJQsqaUBKTNV-1" source="VUxs2TTutxwEe3Bsk4AE-4" target="VUxs2TTutxwEe3Bsk4AE-38" edge="1">
          <mxGeometry relative="1" as="geometry">
            <Array as="points">
              <mxPoint x="-1000" y="-10" />
              <mxPoint x="-480" y="-10" />
            </Array>
          </mxGeometry>
        </mxCell>
        <mxCell id="VUxs2TTutxwEe3Bsk4AE-4" value="LoadManager" style="swimlane;fontStyle=1;align=center;verticalAlign=top;childLayout=stackLayout;horizontal=1;startSize=26;horizontalStack=0;resizeParent=1;resizeParentMax=0;resizeLast=0;collapsible=1;marginBottom=0;whiteSpace=wrap;html=1;" parent="WIyWlLk6GJQsqaUBKTNV-1" vertex="1">
          <mxGeometry x="-1120" y="30" width="160" height="90" as="geometry" />
        </mxCell>
        <mxCell id="VUxs2TTutxwEe3Bsk4AE-6" value="" style="line;strokeWidth=1;fillColor=none;align=left;verticalAlign=middle;spacingTop=-1;spacingLeft=3;spacingRight=3;rotatable=0;labelPosition=right;points=[];portConstraint=eastwest;strokeColor=inherit;" parent="VUxs2TTutxwEe3Bsk4AE-4" vertex="1">
          <mxGeometry y="26" width="160" height="8" as="geometry" />
        </mxCell>
        <mxCell id="VUxs2TTutxwEe3Bsk4AE-7" value="&lt;div&gt;+ load()&lt;/div&gt;" style="text;strokeColor=none;fillColor=none;align=left;verticalAlign=top;spacingLeft=4;spacingRight=4;overflow=hidden;rotatable=0;points=[[0,0.5],[1,0.5]];portConstraint=eastwest;whiteSpace=wrap;html=1;" parent="VUxs2TTutxwEe3Bsk4AE-4" vertex="1">
          <mxGeometry y="34" width="160" height="56" as="geometry" />
        </mxCell>
        <mxCell id="m3gc_QERRkKE4duBlJ67-11" style="edgeStyle=orthogonalEdgeStyle;rounded=0;orthogonalLoop=1;jettySize=auto;html=1;exitX=1.003;exitY=0.083;exitDx=0;exitDy=0;entryX=0;entryY=0.5;entryDx=0;entryDy=0;exitPerimeter=0;dashed=1;endArrow=classic;endFill=1;" parent="WIyWlLk6GJQsqaUBKTNV-1" source="VUxs2TTutxwEe3Bsk4AE-18" edge="1">
          <mxGeometry relative="1" as="geometry">
            <mxPoint x="140" y="103" as="targetPoint" />
            <Array as="points">
              <mxPoint x="81" y="103" />
            </Array>
          </mxGeometry>
        </mxCell>
        <mxCell id="VUxs2TTutxwEe3Bsk4AE-15" value="SceneManager&lt;div&gt;&lt;br&gt;&lt;/div&gt;" style="swimlane;fontStyle=1;align=center;verticalAlign=top;childLayout=stackLayout;horizontal=1;startSize=26;horizontalStack=0;resizeParent=1;resizeParentMax=0;resizeLast=0;collapsible=1;marginBottom=0;whiteSpace=wrap;html=1;" parent="WIyWlLk6GJQsqaUBKTNV-1" vertex="1">
          <mxGeometry x="-80" y="64" width="160" height="160" as="geometry" />
        </mxCell>
        <mxCell id="VUxs2TTutxwEe3Bsk4AE-17" value="" style="line;strokeWidth=1;fillColor=none;align=left;verticalAlign=middle;spacingTop=-1;spacingLeft=3;spacingRight=3;rotatable=0;labelPosition=right;points=[];portConstraint=eastwest;strokeColor=inherit;" parent="VUxs2TTutxwEe3Bsk4AE-15" vertex="1">
          <mxGeometry y="26" width="160" height="8" as="geometry" />
        </mxCell>
        <mxCell id="VUxs2TTutxwEe3Bsk4AE-18" value="+ setScene()&lt;div&gt;+ getScene()&lt;/div&gt;&lt;div&gt;+ addCamera()&lt;/div&gt;&lt;div&gt;+ removeCamera()&lt;/div&gt;&lt;div&gt;+ getCameras()&lt;/div&gt;&lt;div&gt;+ setCamera()&lt;/div&gt;&lt;div&gt;+ getMemento()&lt;/div&gt;&lt;div&gt;+ restoreMemento()&lt;/div&gt;" style="text;strokeColor=none;fillColor=none;align=left;verticalAlign=top;spacingLeft=4;spacingRight=4;overflow=hidden;rotatable=0;points=[[0,0.5],[1,0.5]];portConstraint=eastwest;whiteSpace=wrap;html=1;" parent="VUxs2TTutxwEe3Bsk4AE-15" vertex="1">
          <mxGeometry y="34" width="160" height="126" as="geometry" />
        </mxCell>
        <mxCell id="VUxs2TTutxwEe3Bsk4AE-19" style="edgeStyle=orthogonalEdgeStyle;rounded=0;orthogonalLoop=1;jettySize=auto;html=1;entryX=0.5;entryY=1.006;entryDx=0;entryDy=0;entryPerimeter=0;endArrow=diamondThin;endFill=0;endSize=16;" parent="WIyWlLk6GJQsqaUBKTNV-1" source="msSt4nV4h8XotmUGHWJ2-74" target="VUxs2TTutxwEe3Bsk4AE-18" edge="1">
          <mxGeometry relative="1" as="geometry" />
        </mxCell>
        <mxCell id="VUxs2TTutxwEe3Bsk4AE-33" value="SceneFacade" style="swimlane;fontStyle=1;align=center;verticalAlign=top;childLayout=stackLayout;horizontal=1;startSize=26;horizontalStack=0;resizeParent=1;resizeParentMax=0;resizeLast=0;collapsible=1;marginBottom=0;whiteSpace=wrap;html=1;" parent="WIyWlLk6GJQsqaUBKTNV-1" vertex="1">
          <mxGeometry x="-560" y="-290" width="160" height="60" as="geometry" />
        </mxCell>
        <mxCell id="VUxs2TTutxwEe3Bsk4AE-35" value="" style="line;strokeWidth=1;fillColor=none;align=left;verticalAlign=middle;spacingTop=-1;spacingLeft=3;spacingRight=3;rotatable=0;labelPosition=right;points=[];portConstraint=eastwest;strokeColor=inherit;" parent="VUxs2TTutxwEe3Bsk4AE-33" vertex="1">
          <mxGeometry y="26" width="160" height="8" as="geometry" />
        </mxCell>
        <mxCell id="VUxs2TTutxwEe3Bsk4AE-36" value="+ execute()" style="text;strokeColor=none;fillColor=none;align=left;verticalAlign=top;spacingLeft=4;spacingRight=4;overflow=hidden;rotatable=0;points=[[0,0.5],[1,0.5]];portConstraint=eastwest;whiteSpace=wrap;html=1;" parent="VUxs2TTutxwEe3Bsk4AE-33" vertex="1">
          <mxGeometry y="34" width="160" height="26" as="geometry" />
        </mxCell>
        <mxCell id="VUxs2TTutxwEe3Bsk4AE-38" value="" style="shape=waypoint;sketch=0;fillStyle=solid;size=6;pointerEvents=1;points=[];fillColor=none;resizable=0;rotatable=0;perimeter=centerPerimeter;snapToPoint=1;" parent="WIyWlLk6GJQsqaUBKTNV-1" vertex="1">
          <mxGeometry x="-490" y="-170" width="20" height="20" as="geometry" />
        </mxCell>
        <mxCell id="VUxs2TTutxwEe3Bsk4AE-39" style="edgeStyle=orthogonalEdgeStyle;rounded=1;orthogonalLoop=1;jettySize=auto;html=1;exitX=0.25;exitY=0;exitDx=0;exitDy=0;entryX=0.285;entryY=0.35;entryDx=0;entryDy=0;entryPerimeter=0;endArrow=none;endFill=0;curved=0;" parent="WIyWlLk6GJQsqaUBKTNV-1" source="VUxs2TTutxwEe3Bsk4AE-15" target="VUxs2TTutxwEe3Bsk4AE-38" edge="1">
          <mxGeometry relative="1" as="geometry">
            <Array as="points">
              <mxPoint x="-40" y="-10" />
              <mxPoint x="-480" y="-10" />
            </Array>
          </mxGeometry>
        </mxCell>
        <mxCell id="VUxs2TTutxwEe3Bsk4AE-41" style="edgeStyle=orthogonalEdgeStyle;rounded=0;orthogonalLoop=1;jettySize=auto;html=1;entryX=0.497;entryY=0.973;entryDx=0;entryDy=0;entryPerimeter=0;endArrow=diamondThin;endFill=1;endSize=18;" parent="WIyWlLk6GJQsqaUBKTNV-1" source="VUxs2TTutxwEe3Bsk4AE-38" target="VUxs2TTutxwEe3Bsk4AE-36" edge="1">
          <mxGeometry relative="1" as="geometry" />
        </mxCell>
        <mxCell id="VUxs2TTutxwEe3Bsk4AE-46" value="TransformManager" style="swimlane;fontStyle=1;align=center;verticalAlign=top;childLayout=stackLayout;horizontal=1;startSize=26;horizontalStack=0;resizeParent=1;resizeParentMax=0;resizeLast=0;collapsible=1;marginBottom=0;whiteSpace=wrap;html=1;" parent="WIyWlLk6GJQsqaUBKTNV-1" vertex="1">
          <mxGeometry x="320" y="60" width="160" height="60" as="geometry" />
        </mxCell>
        <mxCell id="VUxs2TTutxwEe3Bsk4AE-48" value="" style="line;strokeWidth=1;fillColor=none;align=left;verticalAlign=middle;spacingTop=-1;spacingLeft=3;spacingRight=3;rotatable=0;labelPosition=right;points=[];portConstraint=eastwest;strokeColor=inherit;" parent="VUxs2TTutxwEe3Bsk4AE-46" vertex="1">
          <mxGeometry y="26" width="160" height="8" as="geometry" />
        </mxCell>
        <mxCell id="VUxs2TTutxwEe3Bsk4AE-49" value="+ transfromObject()" style="text;strokeColor=none;fillColor=none;align=left;verticalAlign=top;spacingLeft=4;spacingRight=4;overflow=hidden;rotatable=0;points=[[0,0.5],[1,0.5]];portConstraint=eastwest;whiteSpace=wrap;html=1;" parent="VUxs2TTutxwEe3Bsk4AE-46" vertex="1">
          <mxGeometry y="34" width="160" height="26" as="geometry" />
        </mxCell>
        <mxCell id="VUxs2TTutxwEe3Bsk4AE-50" style="edgeStyle=orthogonalEdgeStyle;rounded=1;orthogonalLoop=1;jettySize=auto;html=1;entryX=0.883;entryY=1.192;entryDx=0;entryDy=0;entryPerimeter=0;exitX=0.5;exitY=0;exitDx=0;exitDy=0;endArrow=none;endFill=0;curved=0;" parent="WIyWlLk6GJQsqaUBKTNV-1" source="VUxs2TTutxwEe3Bsk4AE-46" target="VUxs2TTutxwEe3Bsk4AE-38" edge="1">
          <mxGeometry relative="1" as="geometry">
            <Array as="points">
              <mxPoint x="400" y="-10" />
              <mxPoint x="-480" y="-10" />
            </Array>
          </mxGeometry>
        </mxCell>
        <mxCell id="VUxs2TTutxwEe3Bsk4AE-69" style="edgeStyle=orthogonalEdgeStyle;rounded=0;orthogonalLoop=1;jettySize=auto;html=1;entryX=1;entryY=0.5;entryDx=0;entryDy=0;dashed=1;" parent="WIyWlLk6GJQsqaUBKTNV-1" source="VUxs2TTutxwEe3Bsk4AE-51" target="VUxs2TTutxwEe3Bsk4AE-49" edge="1">
          <mxGeometry relative="1" as="geometry" />
        </mxCell>
        <mxCell id="VUxs2TTutxwEe3Bsk4AE-70" value="&lt;font style=&quot;font-size: 20px;&quot;&gt;Use&lt;/font&gt;" style="edgeLabel;html=1;align=center;verticalAlign=middle;resizable=0;points=[];" parent="VUxs2TTutxwEe3Bsk4AE-69" vertex="1" connectable="0">
          <mxGeometry x="0.0688" y="-1" relative="1" as="geometry">
            <mxPoint as="offset" />
          </mxGeometry>
        </mxCell>
        <mxCell id="VUxs2TTutxwEe3Bsk4AE-51" value="TransformAction" style="swimlane;fontStyle=1;align=center;verticalAlign=top;childLayout=stackLayout;horizontal=1;startSize=26;horizontalStack=0;resizeParent=1;resizeParentMax=0;resizeLast=0;collapsible=1;marginBottom=0;whiteSpace=wrap;html=1;" parent="WIyWlLk6GJQsqaUBKTNV-1" vertex="1">
          <mxGeometry x="1060" y="386" width="160" height="80" as="geometry" />
        </mxCell>
        <mxCell id="VUxs2TTutxwEe3Bsk4AE-53" value="" style="line;strokeWidth=1;fillColor=none;align=left;verticalAlign=middle;spacingTop=-1;spacingLeft=3;spacingRight=3;rotatable=0;labelPosition=right;points=[];portConstraint=eastwest;strokeColor=inherit;" parent="VUxs2TTutxwEe3Bsk4AE-51" vertex="1">
          <mxGeometry y="26" width="160" height="8" as="geometry" />
        </mxCell>
        <mxCell id="VUxs2TTutxwEe3Bsk4AE-54" value="+ transformPoint()&lt;div&gt;+ getMatrix()&lt;/div&gt;" style="text;strokeColor=none;fillColor=none;align=left;verticalAlign=top;spacingLeft=4;spacingRight=4;overflow=hidden;rotatable=0;points=[[0,0.5],[1,0.5]];portConstraint=eastwest;whiteSpace=wrap;html=1;" parent="VUxs2TTutxwEe3Bsk4AE-51" vertex="1">
          <mxGeometry y="34" width="160" height="46" as="geometry" />
        </mxCell>
        <mxCell id="VUxs2TTutxwEe3Bsk4AE-67" style="edgeStyle=orthogonalEdgeStyle;rounded=1;orthogonalLoop=1;jettySize=auto;html=1;exitX=0.5;exitY=0;exitDx=0;exitDy=0;endArrow=none;endFill=0;curved=0;" parent="WIyWlLk6GJQsqaUBKTNV-1" source="VUxs2TTutxwEe3Bsk4AE-55" edge="1">
          <mxGeometry relative="1" as="geometry">
            <mxPoint x="1140" y="506" as="targetPoint" />
            <Array as="points">
              <mxPoint x="940" y="556" />
              <mxPoint x="1141" y="556" />
              <mxPoint x="1141" y="506" />
            </Array>
          </mxGeometry>
        </mxCell>
        <mxCell id="VUxs2TTutxwEe3Bsk4AE-55" value="RotateAction" style="swimlane;fontStyle=1;align=center;verticalAlign=top;childLayout=stackLayout;horizontal=1;startSize=26;horizontalStack=0;resizeParent=1;resizeParentMax=0;resizeLast=0;collapsible=1;marginBottom=0;whiteSpace=wrap;html=1;" parent="WIyWlLk6GJQsqaUBKTNV-1" vertex="1">
          <mxGeometry x="860" y="586" width="160" height="34" as="geometry" />
        </mxCell>
        <mxCell id="VUxs2TTutxwEe3Bsk4AE-57" value="" style="line;strokeWidth=1;fillColor=none;align=left;verticalAlign=middle;spacingTop=-1;spacingLeft=3;spacingRight=3;rotatable=0;labelPosition=right;points=[];portConstraint=eastwest;strokeColor=inherit;" parent="VUxs2TTutxwEe3Bsk4AE-55" vertex="1">
          <mxGeometry y="26" width="160" height="8" as="geometry" />
        </mxCell>
        <mxCell id="VUxs2TTutxwEe3Bsk4AE-66" style="edgeStyle=orthogonalEdgeStyle;rounded=1;orthogonalLoop=1;jettySize=auto;html=1;exitX=0.5;exitY=0;exitDx=0;exitDy=0;endArrow=none;endFill=0;curved=0;" parent="WIyWlLk6GJQsqaUBKTNV-1" source="VUxs2TTutxwEe3Bsk4AE-59" edge="1">
          <mxGeometry relative="1" as="geometry">
            <mxPoint x="1139.333333333334" y="506" as="targetPoint" />
          </mxGeometry>
        </mxCell>
        <mxCell id="VUxs2TTutxwEe3Bsk4AE-59" value="ScaleAction" style="swimlane;fontStyle=1;align=center;verticalAlign=top;childLayout=stackLayout;horizontal=1;startSize=26;horizontalStack=0;resizeParent=1;resizeParentMax=0;resizeLast=0;collapsible=1;marginBottom=0;whiteSpace=wrap;html=1;" parent="WIyWlLk6GJQsqaUBKTNV-1" vertex="1">
          <mxGeometry x="1060" y="586" width="160" height="34" as="geometry" />
        </mxCell>
        <mxCell id="VUxs2TTutxwEe3Bsk4AE-60" value="" style="line;strokeWidth=1;fillColor=none;align=left;verticalAlign=middle;spacingTop=-1;spacingLeft=3;spacingRight=3;rotatable=0;labelPosition=right;points=[];portConstraint=eastwest;strokeColor=inherit;" parent="VUxs2TTutxwEe3Bsk4AE-59" vertex="1">
          <mxGeometry y="26" width="160" height="8" as="geometry" />
        </mxCell>
        <mxCell id="VUxs2TTutxwEe3Bsk4AE-61" value="MoveAction" style="swimlane;fontStyle=1;align=center;verticalAlign=top;childLayout=stackLayout;horizontal=1;startSize=26;horizontalStack=0;resizeParent=1;resizeParentMax=0;resizeLast=0;collapsible=1;marginBottom=0;whiteSpace=wrap;html=1;" parent="WIyWlLk6GJQsqaUBKTNV-1" vertex="1">
          <mxGeometry x="1260" y="586" width="160" height="34" as="geometry" />
        </mxCell>
        <mxCell id="VUxs2TTutxwEe3Bsk4AE-62" value="" style="line;strokeWidth=1;fillColor=none;align=left;verticalAlign=middle;spacingTop=-1;spacingLeft=3;spacingRight=3;rotatable=0;labelPosition=right;points=[];portConstraint=eastwest;strokeColor=inherit;" parent="VUxs2TTutxwEe3Bsk4AE-61" vertex="1">
          <mxGeometry y="26" width="160" height="8" as="geometry" />
        </mxCell>
        <mxCell id="VUxs2TTutxwEe3Bsk4AE-63" value="" style="shape=waypoint;sketch=0;fillStyle=solid;size=6;pointerEvents=1;points=[];fillColor=none;resizable=0;rotatable=0;perimeter=centerPerimeter;snapToPoint=1;" parent="WIyWlLk6GJQsqaUBKTNV-1" vertex="1">
          <mxGeometry x="1130" y="496" width="20" height="20" as="geometry" />
        </mxCell>
        <mxCell id="VUxs2TTutxwEe3Bsk4AE-65" style="edgeStyle=orthogonalEdgeStyle;rounded=1;orthogonalLoop=1;jettySize=auto;html=1;exitX=0.5;exitY=0;exitDx=0;exitDy=0;entryX=0.8;entryY=0.9;entryDx=0;entryDy=0;entryPerimeter=0;endArrow=none;endFill=0;curved=0;" parent="WIyWlLk6GJQsqaUBKTNV-1" source="VUxs2TTutxwEe3Bsk4AE-61" target="VUxs2TTutxwEe3Bsk4AE-63" edge="1">
          <mxGeometry relative="1" as="geometry">
            <Array as="points">
              <mxPoint x="1340" y="556" />
              <mxPoint x="1140" y="556" />
            </Array>
          </mxGeometry>
        </mxCell>
        <mxCell id="VUxs2TTutxwEe3Bsk4AE-68" style="edgeStyle=orthogonalEdgeStyle;rounded=0;orthogonalLoop=1;jettySize=auto;html=1;entryX=0.491;entryY=1.011;entryDx=0;entryDy=0;entryPerimeter=0;" parent="WIyWlLk6GJQsqaUBKTNV-1" source="VUxs2TTutxwEe3Bsk4AE-63" target="VUxs2TTutxwEe3Bsk4AE-54" edge="1">
          <mxGeometry relative="1" as="geometry" />
        </mxCell>
        <mxCell id="VUxs2TTutxwEe3Bsk4AE-72" value="BaseCommand" style="swimlane;fontStyle=1;align=center;verticalAlign=top;childLayout=stackLayout;horizontal=1;startSize=26;horizontalStack=0;resizeParent=1;resizeParentMax=0;resizeLast=0;collapsible=1;marginBottom=0;whiteSpace=wrap;html=1;" parent="WIyWlLk6GJQsqaUBKTNV-1" vertex="1">
          <mxGeometry x="1040" y="-800" width="160" height="70" as="geometry" />
        </mxCell>
        <mxCell id="VUxs2TTutxwEe3Bsk4AE-74" value="" style="line;strokeWidth=1;fillColor=none;align=left;verticalAlign=middle;spacingTop=-1;spacingLeft=3;spacingRight=3;rotatable=0;labelPosition=right;points=[];portConstraint=eastwest;strokeColor=inherit;" parent="VUxs2TTutxwEe3Bsk4AE-72" vertex="1">
          <mxGeometry y="26" width="160" height="8" as="geometry" />
        </mxCell>
        <mxCell id="VUxs2TTutxwEe3Bsk4AE-75" value="+ execute()&lt;div&gt;+ getDescription()&lt;/div&gt;" style="text;strokeColor=none;fillColor=none;align=left;verticalAlign=top;spacingLeft=4;spacingRight=4;overflow=hidden;rotatable=0;points=[[0,0.5],[1,0.5]];portConstraint=eastwest;whiteSpace=wrap;html=1;" parent="VUxs2TTutxwEe3Bsk4AE-72" vertex="1">
          <mxGeometry y="34" width="160" height="36" as="geometry" />
        </mxCell>
        <mxCell id="VUxs2TTutxwEe3Bsk4AE-125" style="edgeStyle=orthogonalEdgeStyle;rounded=1;orthogonalLoop=1;jettySize=auto;html=1;exitX=0.5;exitY=0;exitDx=0;exitDy=0;endArrow=none;endFill=0;curved=0;" parent="WIyWlLk6GJQsqaUBKTNV-1" source="VUxs2TTutxwEe3Bsk4AE-76" target="VUxs2TTutxwEe3Bsk4AE-122" edge="1">
          <mxGeometry relative="1" as="geometry">
            <Array as="points">
              <mxPoint x="680" y="-690" />
              <mxPoint x="1120" y="-690" />
            </Array>
          </mxGeometry>
        </mxCell>
        <mxCell id="VUxs2TTutxwEe3Bsk4AE-76" value="BaseModelCommand" style="swimlane;fontStyle=1;align=center;verticalAlign=top;childLayout=stackLayout;horizontal=1;startSize=26;horizontalStack=0;resizeParent=1;resizeParentMax=0;resizeLast=0;collapsible=1;marginBottom=0;whiteSpace=wrap;html=1;" parent="WIyWlLk6GJQsqaUBKTNV-1" vertex="1">
          <mxGeometry x="600" y="-680" width="160" height="70" as="geometry" />
        </mxCell>
        <mxCell id="VUxs2TTutxwEe3Bsk4AE-78" value="" style="line;strokeWidth=1;fillColor=none;align=left;verticalAlign=middle;spacingTop=-1;spacingLeft=3;spacingRight=3;rotatable=0;labelPosition=right;points=[];portConstraint=eastwest;strokeColor=inherit;" parent="VUxs2TTutxwEe3Bsk4AE-76" vertex="1">
          <mxGeometry y="26" width="160" height="8" as="geometry" />
        </mxCell>
        <mxCell id="VUxs2TTutxwEe3Bsk4AE-79" value="+ execute()&lt;div&gt;+ getDescription()&lt;br&gt;&lt;/div&gt;" style="text;strokeColor=none;fillColor=none;align=left;verticalAlign=top;spacingLeft=4;spacingRight=4;overflow=hidden;rotatable=0;points=[[0,0.5],[1,0.5]];portConstraint=eastwest;whiteSpace=wrap;html=1;" parent="VUxs2TTutxwEe3Bsk4AE-76" vertex="1">
          <mxGeometry y="34" width="160" height="36" as="geometry" />
        </mxCell>
        <mxCell id="VUxs2TTutxwEe3Bsk4AE-80" value="BaseCameraCommand" style="swimlane;fontStyle=1;align=center;verticalAlign=top;childLayout=stackLayout;horizontal=1;startSize=26;horizontalStack=0;resizeParent=1;resizeParentMax=0;resizeLast=0;collapsible=1;marginBottom=0;whiteSpace=wrap;html=1;" parent="WIyWlLk6GJQsqaUBKTNV-1" vertex="1">
          <mxGeometry x="1040" y="-680" width="160" height="70" as="geometry" />
        </mxCell>
        <mxCell id="VUxs2TTutxwEe3Bsk4AE-81" value="" style="line;strokeWidth=1;fillColor=none;align=left;verticalAlign=middle;spacingTop=-1;spacingLeft=3;spacingRight=3;rotatable=0;labelPosition=right;points=[];portConstraint=eastwest;strokeColor=inherit;" parent="VUxs2TTutxwEe3Bsk4AE-80" vertex="1">
          <mxGeometry y="26" width="160" height="8" as="geometry" />
        </mxCell>
        <mxCell id="VUxs2TTutxwEe3Bsk4AE-82" value="+ execute()&lt;div&gt;+ getDescription()&lt;br&gt;&lt;/div&gt;" style="text;strokeColor=none;fillColor=none;align=left;verticalAlign=top;spacingLeft=4;spacingRight=4;overflow=hidden;rotatable=0;points=[[0,0.5],[1,0.5]];portConstraint=eastwest;whiteSpace=wrap;html=1;" parent="VUxs2TTutxwEe3Bsk4AE-80" vertex="1">
          <mxGeometry y="34" width="160" height="36" as="geometry" />
        </mxCell>
        <mxCell id="VUxs2TTutxwEe3Bsk4AE-83" value="BaseSceneCommand" style="swimlane;fontStyle=1;align=center;verticalAlign=top;childLayout=stackLayout;horizontal=1;startSize=26;horizontalStack=0;resizeParent=1;resizeParentMax=0;resizeLast=0;collapsible=1;marginBottom=0;whiteSpace=wrap;html=1;" parent="WIyWlLk6GJQsqaUBKTNV-1" vertex="1">
          <mxGeometry x="1480" y="-680" width="160" height="70" as="geometry" />
        </mxCell>
        <mxCell id="VUxs2TTutxwEe3Bsk4AE-84" value="" style="line;strokeWidth=1;fillColor=none;align=left;verticalAlign=middle;spacingTop=-1;spacingLeft=3;spacingRight=3;rotatable=0;labelPosition=right;points=[];portConstraint=eastwest;strokeColor=inherit;" parent="VUxs2TTutxwEe3Bsk4AE-83" vertex="1">
          <mxGeometry y="26" width="160" height="8" as="geometry" />
        </mxCell>
        <mxCell id="VUxs2TTutxwEe3Bsk4AE-85" value="+ execute()&lt;div&gt;+ getDescription()&lt;br&gt;&lt;/div&gt;" style="text;strokeColor=none;fillColor=none;align=left;verticalAlign=top;spacingLeft=4;spacingRight=4;overflow=hidden;rotatable=0;points=[[0,0.5],[1,0.5]];portConstraint=eastwest;whiteSpace=wrap;html=1;" parent="VUxs2TTutxwEe3Bsk4AE-83" vertex="1">
          <mxGeometry y="34" width="160" height="36" as="geometry" />
        </mxCell>
        <mxCell id="VUxs2TTutxwEe3Bsk4AE-86" value="MoveCameraCommand" style="swimlane;fontStyle=1;align=center;verticalAlign=top;childLayout=stackLayout;horizontal=1;startSize=26;horizontalStack=0;resizeParent=1;resizeParentMax=0;resizeLast=0;collapsible=1;marginBottom=0;whiteSpace=wrap;html=1;" parent="WIyWlLk6GJQsqaUBKTNV-1" vertex="1">
          <mxGeometry x="920" y="-590" width="160" height="70" as="geometry" />
        </mxCell>
        <mxCell id="VUxs2TTutxwEe3Bsk4AE-88" value="" style="line;strokeWidth=1;fillColor=none;align=left;verticalAlign=middle;spacingTop=-1;spacingLeft=3;spacingRight=3;rotatable=0;labelPosition=right;points=[];portConstraint=eastwest;strokeColor=inherit;" parent="VUxs2TTutxwEe3Bsk4AE-86" vertex="1">
          <mxGeometry y="26" width="160" height="8" as="geometry" />
        </mxCell>
        <mxCell id="VUxs2TTutxwEe3Bsk4AE-89" value="+ execute()&lt;div&gt;+ getDescription()&lt;br&gt;&lt;/div&gt;" style="text;strokeColor=none;fillColor=none;align=left;verticalAlign=top;spacingLeft=4;spacingRight=4;overflow=hidden;rotatable=0;points=[[0,0.5],[1,0.5]];portConstraint=eastwest;whiteSpace=wrap;html=1;" parent="VUxs2TTutxwEe3Bsk4AE-86" vertex="1">
          <mxGeometry y="34" width="160" height="36" as="geometry" />
        </mxCell>
        <mxCell id="VUxs2TTutxwEe3Bsk4AE-91" value="MoveModelCommand" style="swimlane;fontStyle=1;align=center;verticalAlign=top;childLayout=stackLayout;horizontal=1;startSize=26;horizontalStack=0;resizeParent=1;resizeParentMax=0;resizeLast=0;collapsible=1;marginBottom=0;whiteSpace=wrap;html=1;" parent="WIyWlLk6GJQsqaUBKTNV-1" vertex="1">
          <mxGeometry x="480" y="-590" width="160" height="70" as="geometry" />
        </mxCell>
        <mxCell id="VUxs2TTutxwEe3Bsk4AE-92" value="" style="line;strokeWidth=1;fillColor=none;align=left;verticalAlign=middle;spacingTop=-1;spacingLeft=3;spacingRight=3;rotatable=0;labelPosition=right;points=[];portConstraint=eastwest;strokeColor=inherit;" parent="VUxs2TTutxwEe3Bsk4AE-91" vertex="1">
          <mxGeometry y="26" width="160" height="8" as="geometry" />
        </mxCell>
        <mxCell id="VUxs2TTutxwEe3Bsk4AE-93" value="+ execute()&lt;div&gt;+ getDescription()&lt;br&gt;&lt;/div&gt;" style="text;strokeColor=none;fillColor=none;align=left;verticalAlign=top;spacingLeft=4;spacingRight=4;overflow=hidden;rotatable=0;points=[[0,0.5],[1,0.5]];portConstraint=eastwest;whiteSpace=wrap;html=1;" parent="VUxs2TTutxwEe3Bsk4AE-91" vertex="1">
          <mxGeometry y="34" width="160" height="36" as="geometry" />
        </mxCell>
        <mxCell id="VUxs2TTutxwEe3Bsk4AE-103" style="edgeStyle=orthogonalEdgeStyle;rounded=1;orthogonalLoop=1;jettySize=auto;html=1;exitX=0;exitY=0.5;exitDx=0;exitDy=0;endArrow=none;endFill=0;curved=0;" parent="WIyWlLk6GJQsqaUBKTNV-1" source="VUxs2TTutxwEe3Bsk4AE-96" target="VUxs2TTutxwEe3Bsk4AE-102" edge="1">
          <mxGeometry relative="1" as="geometry" />
        </mxCell>
        <mxCell id="VUxs2TTutxwEe3Bsk4AE-96" value="RotateModelCommand" style="swimlane;fontStyle=1;align=center;verticalAlign=top;childLayout=stackLayout;horizontal=1;startSize=26;horizontalStack=0;resizeParent=1;resizeParentMax=0;resizeLast=0;collapsible=1;marginBottom=0;whiteSpace=wrap;html=1;" parent="WIyWlLk6GJQsqaUBKTNV-1" vertex="1">
          <mxGeometry x="720" y="-590" width="160" height="70" as="geometry" />
        </mxCell>
        <mxCell id="VUxs2TTutxwEe3Bsk4AE-97" value="" style="line;strokeWidth=1;fillColor=none;align=left;verticalAlign=middle;spacingTop=-1;spacingLeft=3;spacingRight=3;rotatable=0;labelPosition=right;points=[];portConstraint=eastwest;strokeColor=inherit;" parent="VUxs2TTutxwEe3Bsk4AE-96" vertex="1">
          <mxGeometry y="26" width="160" height="8" as="geometry" />
        </mxCell>
        <mxCell id="VUxs2TTutxwEe3Bsk4AE-98" value="+ execute()&lt;div&gt;+ getDescription()&lt;br&gt;&lt;/div&gt;" style="text;strokeColor=none;fillColor=none;align=left;verticalAlign=top;spacingLeft=4;spacingRight=4;overflow=hidden;rotatable=0;points=[[0,0.5],[1,0.5]];portConstraint=eastwest;whiteSpace=wrap;html=1;" parent="VUxs2TTutxwEe3Bsk4AE-96" vertex="1">
          <mxGeometry y="34" width="160" height="36" as="geometry" />
        </mxCell>
        <mxCell id="VUxs2TTutxwEe3Bsk4AE-102" value="" style="shape=waypoint;sketch=0;fillStyle=solid;size=6;pointerEvents=1;points=[];fillColor=none;resizable=0;rotatable=0;perimeter=centerPerimeter;snapToPoint=1;" parent="WIyWlLk6GJQsqaUBKTNV-1" vertex="1">
          <mxGeometry x="670" y="-570" width="20" height="20" as="geometry" />
        </mxCell>
        <mxCell id="VUxs2TTutxwEe3Bsk4AE-104" style="edgeStyle=orthogonalEdgeStyle;rounded=1;orthogonalLoop=1;jettySize=auto;html=1;exitX=1;exitY=0.5;exitDx=0;exitDy=0;entryX=-0.038;entryY=0.569;entryDx=0;entryDy=0;entryPerimeter=0;endArrow=none;endFill=0;curved=0;" parent="WIyWlLk6GJQsqaUBKTNV-1" source="VUxs2TTutxwEe3Bsk4AE-91" target="VUxs2TTutxwEe3Bsk4AE-102" edge="1">
          <mxGeometry relative="1" as="geometry" />
        </mxCell>
        <mxCell id="VUxs2TTutxwEe3Bsk4AE-105" style="edgeStyle=orthogonalEdgeStyle;rounded=0;orthogonalLoop=1;jettySize=auto;html=1;entryX=0.5;entryY=1;entryDx=0;entryDy=0;entryPerimeter=0;" parent="WIyWlLk6GJQsqaUBKTNV-1" source="VUxs2TTutxwEe3Bsk4AE-102" target="VUxs2TTutxwEe3Bsk4AE-79" edge="1">
          <mxGeometry relative="1" as="geometry" />
        </mxCell>
        <mxCell id="VUxs2TTutxwEe3Bsk4AE-113" style="edgeStyle=orthogonalEdgeStyle;rounded=1;orthogonalLoop=1;jettySize=auto;html=1;endArrow=none;endFill=0;curved=0;" parent="WIyWlLk6GJQsqaUBKTNV-1" source="VUxs2TTutxwEe3Bsk4AE-106" edge="1">
          <mxGeometry relative="1" as="geometry">
            <mxPoint x="680" y="-560" as="targetPoint" />
          </mxGeometry>
        </mxCell>
        <mxCell id="VUxs2TTutxwEe3Bsk4AE-106" value="ScaleModelCommand" style="swimlane;fontStyle=1;align=center;verticalAlign=top;childLayout=stackLayout;horizontal=1;startSize=26;horizontalStack=0;resizeParent=1;resizeParentMax=0;resizeLast=0;collapsible=1;marginBottom=0;whiteSpace=wrap;html=1;" parent="WIyWlLk6GJQsqaUBKTNV-1" vertex="1">
          <mxGeometry x="720" y="-480" width="160" height="70" as="geometry" />
        </mxCell>
        <mxCell id="VUxs2TTutxwEe3Bsk4AE-107" value="" style="line;strokeWidth=1;fillColor=none;align=left;verticalAlign=middle;spacingTop=-1;spacingLeft=3;spacingRight=3;rotatable=0;labelPosition=right;points=[];portConstraint=eastwest;strokeColor=inherit;" parent="VUxs2TTutxwEe3Bsk4AE-106" vertex="1">
          <mxGeometry y="26" width="160" height="8" as="geometry" />
        </mxCell>
        <mxCell id="VUxs2TTutxwEe3Bsk4AE-108" value="+ execute()&lt;div&gt;+ getDescription()&lt;br&gt;&lt;/div&gt;" style="text;strokeColor=none;fillColor=none;align=left;verticalAlign=top;spacingLeft=4;spacingRight=4;overflow=hidden;rotatable=0;points=[[0,0.5],[1,0.5]];portConstraint=eastwest;whiteSpace=wrap;html=1;" parent="VUxs2TTutxwEe3Bsk4AE-106" vertex="1">
          <mxGeometry y="34" width="160" height="36" as="geometry" />
        </mxCell>
        <mxCell id="VUxs2TTutxwEe3Bsk4AE-109" value="TransformModelCommand" style="swimlane;fontStyle=1;align=center;verticalAlign=top;childLayout=stackLayout;horizontal=1;startSize=26;horizontalStack=0;resizeParent=1;resizeParentMax=0;resizeLast=0;collapsible=1;marginBottom=0;whiteSpace=wrap;html=1;" parent="WIyWlLk6GJQsqaUBKTNV-1" vertex="1">
          <mxGeometry x="480" y="-480" width="160" height="70" as="geometry" />
        </mxCell>
        <mxCell id="VUxs2TTutxwEe3Bsk4AE-110" value="" style="line;strokeWidth=1;fillColor=none;align=left;verticalAlign=middle;spacingTop=-1;spacingLeft=3;spacingRight=3;rotatable=0;labelPosition=right;points=[];portConstraint=eastwest;strokeColor=inherit;" parent="VUxs2TTutxwEe3Bsk4AE-109" vertex="1">
          <mxGeometry y="26" width="160" height="8" as="geometry" />
        </mxCell>
        <mxCell id="VUxs2TTutxwEe3Bsk4AE-111" value="+ execute()&lt;div&gt;+ getDescription()&lt;br&gt;&lt;/div&gt;" style="text;strokeColor=none;fillColor=none;align=left;verticalAlign=top;spacingLeft=4;spacingRight=4;overflow=hidden;rotatable=0;points=[[0,0.5],[1,0.5]];portConstraint=eastwest;whiteSpace=wrap;html=1;" parent="VUxs2TTutxwEe3Bsk4AE-109" vertex="1">
          <mxGeometry y="34" width="160" height="36" as="geometry" />
        </mxCell>
        <mxCell id="VUxs2TTutxwEe3Bsk4AE-112" style="edgeStyle=orthogonalEdgeStyle;rounded=1;orthogonalLoop=1;jettySize=auto;html=1;entryX=0.775;entryY=0.944;entryDx=0;entryDy=0;entryPerimeter=0;endArrow=none;endFill=0;curved=0;" parent="WIyWlLk6GJQsqaUBKTNV-1" source="VUxs2TTutxwEe3Bsk4AE-109" target="VUxs2TTutxwEe3Bsk4AE-102" edge="1">
          <mxGeometry relative="1" as="geometry" />
        </mxCell>
        <mxCell id="VUxs2TTutxwEe3Bsk4AE-119" style="edgeStyle=orthogonalEdgeStyle;rounded=1;orthogonalLoop=1;jettySize=auto;html=1;exitX=0;exitY=0.5;exitDx=0;exitDy=0;endArrow=none;endFill=0;curved=0;" parent="WIyWlLk6GJQsqaUBKTNV-1" source="VUxs2TTutxwEe3Bsk4AE-114" target="VUxs2TTutxwEe3Bsk4AE-118" edge="1">
          <mxGeometry relative="1" as="geometry" />
        </mxCell>
        <mxCell id="VUxs2TTutxwEe3Bsk4AE-114" value="SetCameraCommand" style="swimlane;fontStyle=1;align=center;verticalAlign=top;childLayout=stackLayout;horizontal=1;startSize=26;horizontalStack=0;resizeParent=1;resizeParentMax=0;resizeLast=0;collapsible=1;marginBottom=0;whiteSpace=wrap;html=1;" parent="WIyWlLk6GJQsqaUBKTNV-1" vertex="1">
          <mxGeometry x="1161" y="-590" width="160" height="70" as="geometry" />
        </mxCell>
        <mxCell id="VUxs2TTutxwEe3Bsk4AE-115" value="" style="line;strokeWidth=1;fillColor=none;align=left;verticalAlign=middle;spacingTop=-1;spacingLeft=3;spacingRight=3;rotatable=0;labelPosition=right;points=[];portConstraint=eastwest;strokeColor=inherit;" parent="VUxs2TTutxwEe3Bsk4AE-114" vertex="1">
          <mxGeometry y="26" width="160" height="8" as="geometry" />
        </mxCell>
        <mxCell id="VUxs2TTutxwEe3Bsk4AE-116" value="+ execute()&lt;div&gt;+ getDescription()&lt;br&gt;&lt;/div&gt;" style="text;strokeColor=none;fillColor=none;align=left;verticalAlign=top;spacingLeft=4;spacingRight=4;overflow=hidden;rotatable=0;points=[[0,0.5],[1,0.5]];portConstraint=eastwest;whiteSpace=wrap;html=1;" parent="VUxs2TTutxwEe3Bsk4AE-114" vertex="1">
          <mxGeometry y="34" width="160" height="36" as="geometry" />
        </mxCell>
        <mxCell id="VUxs2TTutxwEe3Bsk4AE-118" value="" style="shape=waypoint;sketch=0;fillStyle=solid;size=6;pointerEvents=1;points=[];fillColor=none;resizable=0;rotatable=0;perimeter=centerPerimeter;snapToPoint=1;" parent="WIyWlLk6GJQsqaUBKTNV-1" vertex="1">
          <mxGeometry x="1110" y="-570" width="20" height="20" as="geometry" />
        </mxCell>
        <mxCell id="VUxs2TTutxwEe3Bsk4AE-120" style="edgeStyle=orthogonalEdgeStyle;rounded=1;orthogonalLoop=1;jettySize=auto;html=1;exitX=1;exitY=0.5;exitDx=0;exitDy=0;entryX=-0.069;entryY=0.569;entryDx=0;entryDy=0;entryPerimeter=0;endArrow=none;endFill=0;curved=0;" parent="WIyWlLk6GJQsqaUBKTNV-1" source="VUxs2TTutxwEe3Bsk4AE-86" target="VUxs2TTutxwEe3Bsk4AE-118" edge="1">
          <mxGeometry relative="1" as="geometry" />
        </mxCell>
        <mxCell id="VUxs2TTutxwEe3Bsk4AE-121" style="edgeStyle=orthogonalEdgeStyle;rounded=0;orthogonalLoop=1;jettySize=auto;html=1;entryX=0.503;entryY=1.005;entryDx=0;entryDy=0;entryPerimeter=0;" parent="WIyWlLk6GJQsqaUBKTNV-1" source="VUxs2TTutxwEe3Bsk4AE-118" target="VUxs2TTutxwEe3Bsk4AE-82" edge="1">
          <mxGeometry relative="1" as="geometry" />
        </mxCell>
        <mxCell id="VUxs2TTutxwEe3Bsk4AE-122" value="" style="shape=waypoint;sketch=0;fillStyle=solid;size=6;pointerEvents=1;points=[];fillColor=none;resizable=0;rotatable=0;perimeter=centerPerimeter;snapToPoint=1;" parent="WIyWlLk6GJQsqaUBKTNV-1" vertex="1">
          <mxGeometry x="1110" y="-710" width="20" height="20" as="geometry" />
        </mxCell>
        <mxCell id="VUxs2TTutxwEe3Bsk4AE-123" style="edgeStyle=orthogonalEdgeStyle;rounded=1;orthogonalLoop=1;jettySize=auto;html=1;exitX=0.5;exitY=0;exitDx=0;exitDy=0;entryX=0.525;entryY=1.1;entryDx=0;entryDy=0;entryPerimeter=0;endArrow=none;endFill=0;curved=0;" parent="WIyWlLk6GJQsqaUBKTNV-1" source="VUxs2TTutxwEe3Bsk4AE-80" target="VUxs2TTutxwEe3Bsk4AE-122" edge="1">
          <mxGeometry relative="1" as="geometry" />
        </mxCell>
        <mxCell id="VUxs2TTutxwEe3Bsk4AE-124" style="edgeStyle=orthogonalEdgeStyle;rounded=1;orthogonalLoop=1;jettySize=auto;html=1;exitX=0.5;exitY=0;exitDx=0;exitDy=0;entryX=0.775;entryY=0.325;entryDx=0;entryDy=0;entryPerimeter=0;endArrow=none;endFill=0;curved=0;" parent="WIyWlLk6GJQsqaUBKTNV-1" source="VUxs2TTutxwEe3Bsk4AE-83" target="VUxs2TTutxwEe3Bsk4AE-122" edge="1">
          <mxGeometry relative="1" as="geometry">
            <Array as="points">
              <mxPoint x="1560" y="-690" />
              <mxPoint x="1120" y="-690" />
            </Array>
          </mxGeometry>
        </mxCell>
        <mxCell id="VUxs2TTutxwEe3Bsk4AE-126" style="edgeStyle=orthogonalEdgeStyle;rounded=0;orthogonalLoop=1;jettySize=auto;html=1;entryX=0.5;entryY=0.962;entryDx=0;entryDy=0;entryPerimeter=0;" parent="WIyWlLk6GJQsqaUBKTNV-1" source="VUxs2TTutxwEe3Bsk4AE-122" target="VUxs2TTutxwEe3Bsk4AE-75" edge="1">
          <mxGeometry relative="1" as="geometry" />
        </mxCell>
        <mxCell id="VUxs2TTutxwEe3Bsk4AE-127" value="" style="shape=waypoint;sketch=0;fillStyle=solid;size=6;pointerEvents=1;points=[];fillColor=none;resizable=0;rotatable=0;perimeter=centerPerimeter;snapToPoint=1;" parent="WIyWlLk6GJQsqaUBKTNV-1" vertex="1">
          <mxGeometry x="1550" y="-570" width="20" height="20" as="geometry" />
        </mxCell>
        <mxCell id="VUxs2TTutxwEe3Bsk4AE-139" style="edgeStyle=orthogonalEdgeStyle;rounded=1;orthogonalLoop=1;jettySize=auto;html=1;exitX=0;exitY=0.5;exitDx=0;exitDy=0;endArrow=none;endFill=0;curved=0;" parent="WIyWlLk6GJQsqaUBKTNV-1" source="VUxs2TTutxwEe3Bsk4AE-136" edge="1">
          <mxGeometry relative="1" as="geometry">
            <mxPoint x="680" y="-554" as="targetPoint" />
            <Array as="points">
              <mxPoint x="720" y="-330" />
              <mxPoint x="680" y="-330" />
            </Array>
          </mxGeometry>
        </mxCell>
        <mxCell id="VUxs2TTutxwEe3Bsk4AE-136" value="RemoveModelCommand" style="swimlane;fontStyle=1;align=center;verticalAlign=top;childLayout=stackLayout;horizontal=1;startSize=26;horizontalStack=0;resizeParent=1;resizeParentMax=0;resizeLast=0;collapsible=1;marginBottom=0;whiteSpace=wrap;html=1;" parent="WIyWlLk6GJQsqaUBKTNV-1" vertex="1">
          <mxGeometry x="720" y="-370" width="160" height="70" as="geometry" />
        </mxCell>
        <mxCell id="VUxs2TTutxwEe3Bsk4AE-137" value="" style="line;strokeWidth=1;fillColor=none;align=left;verticalAlign=middle;spacingTop=-1;spacingLeft=3;spacingRight=3;rotatable=0;labelPosition=right;points=[];portConstraint=eastwest;strokeColor=inherit;" parent="VUxs2TTutxwEe3Bsk4AE-136" vertex="1">
          <mxGeometry y="26" width="160" height="8" as="geometry" />
        </mxCell>
        <mxCell id="VUxs2TTutxwEe3Bsk4AE-138" value="+ execute()&lt;div&gt;+ getDescription()&lt;br&gt;&lt;/div&gt;" style="text;strokeColor=none;fillColor=none;align=left;verticalAlign=top;spacingLeft=4;spacingRight=4;overflow=hidden;rotatable=0;points=[[0,0.5],[1,0.5]];portConstraint=eastwest;whiteSpace=wrap;html=1;" parent="VUxs2TTutxwEe3Bsk4AE-136" vertex="1">
          <mxGeometry y="34" width="160" height="36" as="geometry" />
        </mxCell>
        <mxCell id="VUxs2TTutxwEe3Bsk4AE-146" style="edgeStyle=orthogonalEdgeStyle;rounded=1;orthogonalLoop=1;jettySize=auto;html=1;exitX=0;exitY=0.5;exitDx=0;exitDy=0;endArrow=none;endFill=0;curved=0;" parent="WIyWlLk6GJQsqaUBKTNV-1" source="VUxs2TTutxwEe3Bsk4AE-140" edge="1">
          <mxGeometry relative="1" as="geometry">
            <mxPoint x="1119.999999999999" y="-560.0000000000002" as="targetPoint" />
          </mxGeometry>
        </mxCell>
        <mxCell id="VUxs2TTutxwEe3Bsk4AE-140" value="RemoveCameraCommand" style="swimlane;fontStyle=1;align=center;verticalAlign=top;childLayout=stackLayout;horizontal=1;startSize=26;horizontalStack=0;resizeParent=1;resizeParentMax=0;resizeLast=0;collapsible=1;marginBottom=0;whiteSpace=wrap;html=1;" parent="WIyWlLk6GJQsqaUBKTNV-1" vertex="1">
          <mxGeometry x="1161" y="-480" width="160" height="70" as="geometry" />
        </mxCell>
        <mxCell id="VUxs2TTutxwEe3Bsk4AE-141" value="" style="line;strokeWidth=1;fillColor=none;align=left;verticalAlign=middle;spacingTop=-1;spacingLeft=3;spacingRight=3;rotatable=0;labelPosition=right;points=[];portConstraint=eastwest;strokeColor=inherit;" parent="VUxs2TTutxwEe3Bsk4AE-140" vertex="1">
          <mxGeometry y="26" width="160" height="8" as="geometry" />
        </mxCell>
        <mxCell id="VUxs2TTutxwEe3Bsk4AE-142" value="+ execute()&lt;div&gt;+ getDescription()&lt;br&gt;&lt;/div&gt;" style="text;strokeColor=none;fillColor=none;align=left;verticalAlign=top;spacingLeft=4;spacingRight=4;overflow=hidden;rotatable=0;points=[[0,0.5],[1,0.5]];portConstraint=eastwest;whiteSpace=wrap;html=1;" parent="VUxs2TTutxwEe3Bsk4AE-140" vertex="1">
          <mxGeometry y="34" width="160" height="36" as="geometry" />
        </mxCell>
        <mxCell id="VUxs2TTutxwEe3Bsk4AE-147" style="edgeStyle=orthogonalEdgeStyle;rounded=1;orthogonalLoop=1;jettySize=auto;html=1;exitX=1;exitY=0.5;exitDx=0;exitDy=0;endArrow=none;endFill=0;curved=0;" parent="WIyWlLk6GJQsqaUBKTNV-1" source="VUxs2TTutxwEe3Bsk4AE-143" edge="1">
          <mxGeometry relative="1" as="geometry">
            <mxPoint x="1119.999999999999" y="-560.0000000000002" as="targetPoint" />
          </mxGeometry>
        </mxCell>
        <mxCell id="VUxs2TTutxwEe3Bsk4AE-143" value="AddCameraCommand" style="swimlane;fontStyle=1;align=center;verticalAlign=top;childLayout=stackLayout;horizontal=1;startSize=26;horizontalStack=0;resizeParent=1;resizeParentMax=0;resizeLast=0;collapsible=1;marginBottom=0;whiteSpace=wrap;html=1;" parent="WIyWlLk6GJQsqaUBKTNV-1" vertex="1">
          <mxGeometry x="920" y="-480" width="160" height="70" as="geometry" />
        </mxCell>
        <mxCell id="VUxs2TTutxwEe3Bsk4AE-144" value="" style="line;strokeWidth=1;fillColor=none;align=left;verticalAlign=middle;spacingTop=-1;spacingLeft=3;spacingRight=3;rotatable=0;labelPosition=right;points=[];portConstraint=eastwest;strokeColor=inherit;" parent="VUxs2TTutxwEe3Bsk4AE-143" vertex="1">
          <mxGeometry y="26" width="160" height="8" as="geometry" />
        </mxCell>
        <mxCell id="VUxs2TTutxwEe3Bsk4AE-145" value="+ execute()&lt;div&gt;+ getDescription()&lt;br&gt;&lt;/div&gt;" style="text;strokeColor=none;fillColor=none;align=left;verticalAlign=top;spacingLeft=4;spacingRight=4;overflow=hidden;rotatable=0;points=[[0,0.5],[1,0.5]];portConstraint=eastwest;whiteSpace=wrap;html=1;" parent="VUxs2TTutxwEe3Bsk4AE-143" vertex="1">
          <mxGeometry y="34" width="160" height="36" as="geometry" />
        </mxCell>
        <mxCell id="VUxs2TTutxwEe3Bsk4AE-148" value="ClearSceneCommand" style="swimlane;fontStyle=1;align=center;verticalAlign=top;childLayout=stackLayout;horizontal=1;startSize=26;horizontalStack=0;resizeParent=1;resizeParentMax=0;resizeLast=0;collapsible=1;marginBottom=0;whiteSpace=wrap;html=1;" parent="WIyWlLk6GJQsqaUBKTNV-1" vertex="1">
          <mxGeometry x="1360" y="-590" width="160" height="70" as="geometry" />
        </mxCell>
        <mxCell id="VUxs2TTutxwEe3Bsk4AE-149" value="" style="line;strokeWidth=1;fillColor=none;align=left;verticalAlign=middle;spacingTop=-1;spacingLeft=3;spacingRight=3;rotatable=0;labelPosition=right;points=[];portConstraint=eastwest;strokeColor=inherit;" parent="VUxs2TTutxwEe3Bsk4AE-148" vertex="1">
          <mxGeometry y="26" width="160" height="8" as="geometry" />
        </mxCell>
        <mxCell id="VUxs2TTutxwEe3Bsk4AE-150" value="+ execute()&lt;div&gt;+ getDescription()&lt;br&gt;&lt;/div&gt;" style="text;strokeColor=none;fillColor=none;align=left;verticalAlign=top;spacingLeft=4;spacingRight=4;overflow=hidden;rotatable=0;points=[[0,0.5],[1,0.5]];portConstraint=eastwest;whiteSpace=wrap;html=1;" parent="VUxs2TTutxwEe3Bsk4AE-148" vertex="1">
          <mxGeometry y="34" width="160" height="36" as="geometry" />
        </mxCell>
        <mxCell id="VUxs2TTutxwEe3Bsk4AE-151" style="edgeStyle=orthogonalEdgeStyle;rounded=1;orthogonalLoop=1;jettySize=auto;html=1;exitX=1;exitY=0.5;exitDx=0;exitDy=0;entryX=0.024;entryY=0.241;entryDx=0;entryDy=0;entryPerimeter=0;curved=0;endArrow=none;endFill=0;" parent="WIyWlLk6GJQsqaUBKTNV-1" source="VUxs2TTutxwEe3Bsk4AE-148" target="VUxs2TTutxwEe3Bsk4AE-127" edge="1">
          <mxGeometry relative="1" as="geometry" />
        </mxCell>
        <mxCell id="VUxs2TTutxwEe3Bsk4AE-157" style="edgeStyle=orthogonalEdgeStyle;rounded=0;orthogonalLoop=1;jettySize=auto;html=1;exitX=0;exitY=0.5;exitDx=0;exitDy=0;entryX=0.996;entryY=0.292;entryDx=0;entryDy=0;entryPerimeter=0;dashed=1;" parent="WIyWlLk6GJQsqaUBKTNV-1" source="VUxs2TTutxwEe3Bsk4AE-72" target="VUxs2TTutxwEe3Bsk4AE-35" edge="1">
          <mxGeometry relative="1" as="geometry" />
        </mxCell>
        <mxCell id="VUxs2TTutxwEe3Bsk4AE-168" style="edgeStyle=orthogonalEdgeStyle;rounded=0;orthogonalLoop=1;jettySize=auto;html=1;entryX=0.5;entryY=1;entryDx=0;entryDy=0;entryPerimeter=0;" parent="WIyWlLk6GJQsqaUBKTNV-1" source="VUxs2TTutxwEe3Bsk4AE-127" target="VUxs2TTutxwEe3Bsk4AE-85" edge="1">
          <mxGeometry relative="1" as="geometry" />
        </mxCell>
        <mxCell id="zBIig5rJtYibUITmTjut-2" value="BaseDrawer" style="swimlane;fontStyle=1;align=center;verticalAlign=top;childLayout=stackLayout;horizontal=1;startSize=26;horizontalStack=0;resizeParent=1;resizeParentMax=0;resizeLast=0;collapsible=1;marginBottom=0;whiteSpace=wrap;html=1;" parent="WIyWlLk6GJQsqaUBKTNV-1" vertex="1">
          <mxGeometry x="-680" y="400" width="160" height="80" as="geometry" />
        </mxCell>
        <mxCell id="zBIig5rJtYibUITmTjut-4" value="" style="line;strokeWidth=1;fillColor=none;align=left;verticalAlign=middle;spacingTop=-1;spacingLeft=3;spacingRight=3;rotatable=0;labelPosition=right;points=[];portConstraint=eastwest;strokeColor=inherit;" parent="zBIig5rJtYibUITmTjut-2" vertex="1">
          <mxGeometry y="26" width="160" height="8" as="geometry" />
        </mxCell>
        <mxCell id="zBIig5rJtYibUITmTjut-5" value="+ drawLine()&lt;div&gt;+ clear()&lt;/div&gt;" style="text;strokeColor=none;fillColor=none;align=left;verticalAlign=top;spacingLeft=4;spacingRight=4;overflow=hidden;rotatable=0;points=[[0,0.5],[1,0.5]];portConstraint=eastwest;whiteSpace=wrap;html=1;" parent="zBIig5rJtYibUITmTjut-2" vertex="1">
          <mxGeometry y="34" width="160" height="46" as="geometry" />
        </mxCell>
        <mxCell id="zBIig5rJtYibUITmTjut-6" value="QtDrawer" style="swimlane;fontStyle=1;align=center;verticalAlign=top;childLayout=stackLayout;horizontal=1;startSize=26;horizontalStack=0;resizeParent=1;resizeParentMax=0;resizeLast=0;collapsible=1;marginBottom=0;whiteSpace=wrap;html=1;" parent="WIyWlLk6GJQsqaUBKTNV-1" vertex="1">
          <mxGeometry x="-680" y="560" width="160" height="80" as="geometry" />
        </mxCell>
        <mxCell id="zBIig5rJtYibUITmTjut-7" value="" style="line;strokeWidth=1;fillColor=none;align=left;verticalAlign=middle;spacingTop=-1;spacingLeft=3;spacingRight=3;rotatable=0;labelPosition=right;points=[];portConstraint=eastwest;strokeColor=inherit;" parent="zBIig5rJtYibUITmTjut-6" vertex="1">
          <mxGeometry y="26" width="160" height="8" as="geometry" />
        </mxCell>
        <mxCell id="zBIig5rJtYibUITmTjut-8" value="+ drawLine()&lt;div&gt;+ clear()&lt;/div&gt;" style="text;strokeColor=none;fillColor=none;align=left;verticalAlign=top;spacingLeft=4;spacingRight=4;overflow=hidden;rotatable=0;points=[[0,0.5],[1,0.5]];portConstraint=eastwest;whiteSpace=wrap;html=1;" parent="zBIig5rJtYibUITmTjut-6" vertex="1">
          <mxGeometry y="34" width="160" height="46" as="geometry" />
        </mxCell>
        <mxCell id="zBIig5rJtYibUITmTjut-10" style="edgeStyle=orthogonalEdgeStyle;rounded=0;orthogonalLoop=1;jettySize=auto;html=1;exitX=0.5;exitY=0;exitDx=0;exitDy=0;entryX=0.499;entryY=1.015;entryDx=0;entryDy=0;entryPerimeter=0;" parent="WIyWlLk6GJQsqaUBKTNV-1" source="zBIig5rJtYibUITmTjut-6" target="zBIig5rJtYibUITmTjut-5" edge="1">
          <mxGeometry relative="1" as="geometry" />
        </mxCell>
        <mxCell id="zBIig5rJtYibUITmTjut-40" style="edgeStyle=orthogonalEdgeStyle;rounded=1;orthogonalLoop=1;jettySize=auto;html=1;exitX=0.5;exitY=0;exitDx=0;exitDy=0;endArrow=none;endFill=0;curved=0;" parent="WIyWlLk6GJQsqaUBKTNV-1" source="zBIig5rJtYibUITmTjut-11" edge="1">
          <mxGeometry relative="1" as="geometry">
            <mxPoint x="-480" y="-160" as="targetPoint" />
            <Array as="points">
              <mxPoint x="-400" y="-10" />
              <mxPoint x="-479" y="-10" />
              <mxPoint x="-479" y="-160" />
            </Array>
          </mxGeometry>
        </mxCell>
        <mxCell id="zBIig5rJtYibUITmTjut-11" value="DrawerManager" style="swimlane;fontStyle=1;align=center;verticalAlign=top;childLayout=stackLayout;horizontal=1;startSize=26;horizontalStack=0;resizeParent=1;resizeParentMax=0;resizeLast=0;collapsible=1;marginBottom=0;whiteSpace=wrap;html=1;" parent="WIyWlLk6GJQsqaUBKTNV-1" vertex="1">
          <mxGeometry x="-480" y="75" width="160" height="90" as="geometry" />
        </mxCell>
        <mxCell id="zBIig5rJtYibUITmTjut-13" value="" style="line;strokeWidth=1;fillColor=none;align=left;verticalAlign=middle;spacingTop=-1;spacingLeft=3;spacingRight=3;rotatable=0;labelPosition=right;points=[];portConstraint=eastwest;strokeColor=inherit;" parent="zBIig5rJtYibUITmTjut-11" vertex="1">
          <mxGeometry y="26" width="160" height="8" as="geometry" />
        </mxCell>
        <mxCell id="zBIig5rJtYibUITmTjut-14" value="+ drawScene()&lt;div&gt;+ drawObject()&lt;/div&gt;&lt;div&gt;+ setDrawer()&lt;/div&gt;" style="text;strokeColor=none;fillColor=none;align=left;verticalAlign=top;spacingLeft=4;spacingRight=4;overflow=hidden;rotatable=0;points=[[0,0.5],[1,0.5]];portConstraint=eastwest;whiteSpace=wrap;html=1;" parent="zBIig5rJtYibUITmTjut-11" vertex="1">
          <mxGeometry y="34" width="160" height="56" as="geometry" />
        </mxCell>
        <mxCell id="zBIig5rJtYibUITmTjut-15" value="QtDrawerCreator()" style="swimlane;fontStyle=1;align=center;verticalAlign=top;childLayout=stackLayout;horizontal=1;startSize=26;horizontalStack=0;resizeParent=1;resizeParentMax=0;resizeLast=0;collapsible=1;marginBottom=0;whiteSpace=wrap;html=1;" parent="WIyWlLk6GJQsqaUBKTNV-1" vertex="1">
          <mxGeometry x="-440" y="570" width="160" height="60" as="geometry" />
        </mxCell>
        <mxCell id="zBIig5rJtYibUITmTjut-17" value="" style="line;strokeWidth=1;fillColor=none;align=left;verticalAlign=middle;spacingTop=-1;spacingLeft=3;spacingRight=3;rotatable=0;labelPosition=right;points=[];portConstraint=eastwest;strokeColor=inherit;" parent="zBIig5rJtYibUITmTjut-15" vertex="1">
          <mxGeometry y="26" width="160" height="8" as="geometry" />
        </mxCell>
        <mxCell id="zBIig5rJtYibUITmTjut-18" value="+ create()" style="text;strokeColor=none;fillColor=none;align=left;verticalAlign=top;spacingLeft=4;spacingRight=4;overflow=hidden;rotatable=0;points=[[0,0.5],[1,0.5]];portConstraint=eastwest;whiteSpace=wrap;html=1;" parent="zBIig5rJtYibUITmTjut-15" vertex="1">
          <mxGeometry y="34" width="160" height="26" as="geometry" />
        </mxCell>
        <mxCell id="zBIig5rJtYibUITmTjut-19" style="edgeStyle=orthogonalEdgeStyle;rounded=0;orthogonalLoop=1;jettySize=auto;html=1;entryX=1;entryY=0.5;entryDx=0;entryDy=0;dashed=1;" parent="WIyWlLk6GJQsqaUBKTNV-1" source="zBIig5rJtYibUITmTjut-18" target="zBIig5rJtYibUITmTjut-8" edge="1">
          <mxGeometry relative="1" as="geometry" />
        </mxCell>
        <mxCell id="zBIig5rJtYibUITmTjut-20" value="BaseDrawerCreator" style="swimlane;fontStyle=1;align=center;verticalAlign=top;childLayout=stackLayout;horizontal=1;startSize=26;horizontalStack=0;resizeParent=1;resizeParentMax=0;resizeLast=0;collapsible=1;marginBottom=0;whiteSpace=wrap;html=1;" parent="WIyWlLk6GJQsqaUBKTNV-1" vertex="1">
          <mxGeometry x="-440" y="410" width="160" height="60" as="geometry" />
        </mxCell>
        <mxCell id="zBIig5rJtYibUITmTjut-21" value="" style="line;strokeWidth=1;fillColor=none;align=left;verticalAlign=middle;spacingTop=-1;spacingLeft=3;spacingRight=3;rotatable=0;labelPosition=right;points=[];portConstraint=eastwest;strokeColor=inherit;" parent="zBIig5rJtYibUITmTjut-20" vertex="1">
          <mxGeometry y="26" width="160" height="8" as="geometry" />
        </mxCell>
        <mxCell id="zBIig5rJtYibUITmTjut-22" value="+ create()" style="text;strokeColor=none;fillColor=none;align=left;verticalAlign=top;spacingLeft=4;spacingRight=4;overflow=hidden;rotatable=0;points=[[0,0.5],[1,0.5]];portConstraint=eastwest;whiteSpace=wrap;html=1;" parent="zBIig5rJtYibUITmTjut-20" vertex="1">
          <mxGeometry y="34" width="160" height="26" as="geometry" />
        </mxCell>
        <mxCell id="zBIig5rJtYibUITmTjut-24" style="edgeStyle=orthogonalEdgeStyle;rounded=0;orthogonalLoop=1;jettySize=auto;html=1;exitX=0.5;exitY=0;exitDx=0;exitDy=0;entryX=0.492;entryY=0.982;entryDx=0;entryDy=0;entryPerimeter=0;" parent="WIyWlLk6GJQsqaUBKTNV-1" source="zBIig5rJtYibUITmTjut-15" target="zBIig5rJtYibUITmTjut-22" edge="1">
          <mxGeometry relative="1" as="geometry" />
        </mxCell>
        <mxCell id="zBIig5rJtYibUITmTjut-49" value="Visitor" style="swimlane;fontStyle=1;align=center;verticalAlign=top;childLayout=stackLayout;horizontal=1;startSize=26;horizontalStack=0;resizeParent=1;resizeParentMax=0;resizeLast=0;collapsible=1;marginBottom=0;whiteSpace=wrap;html=1;" parent="WIyWlLk6GJQsqaUBKTNV-1" vertex="1">
          <mxGeometry x="-260" y="75" width="160" height="90" as="geometry" />
        </mxCell>
        <mxCell id="zBIig5rJtYibUITmTjut-51" value="" style="line;strokeWidth=1;fillColor=none;align=left;verticalAlign=middle;spacingTop=-1;spacingLeft=3;spacingRight=3;rotatable=0;labelPosition=right;points=[];portConstraint=eastwest;strokeColor=inherit;" parent="zBIig5rJtYibUITmTjut-49" vertex="1">
          <mxGeometry y="26" width="160" height="8" as="geometry" />
        </mxCell>
        <mxCell id="zBIig5rJtYibUITmTjut-52" value="+ visit(BoneModel)&lt;div&gt;+ visit(Composite)&lt;/div&gt;&lt;div&gt;+ visit(Camera)&lt;/div&gt;" style="text;strokeColor=none;fillColor=none;align=left;verticalAlign=top;spacingLeft=4;spacingRight=4;overflow=hidden;rotatable=0;points=[[0,0.5],[1,0.5]];portConstraint=eastwest;whiteSpace=wrap;html=1;" parent="zBIig5rJtYibUITmTjut-49" vertex="1">
          <mxGeometry y="34" width="160" height="56" as="geometry" />
        </mxCell>
        <mxCell id="zBIig5rJtYibUITmTjut-53" style="edgeStyle=orthogonalEdgeStyle;rounded=0;orthogonalLoop=1;jettySize=auto;html=1;exitX=0;exitY=0.5;exitDx=0;exitDy=0;entryX=1;entryY=0.5;entryDx=0;entryDy=0;endArrow=classic;endFill=1;endSize=6;dashed=1;" parent="WIyWlLk6GJQsqaUBKTNV-1" source="zBIig5rJtYibUITmTjut-52" target="zBIig5rJtYibUITmTjut-14" edge="1">
          <mxGeometry relative="1" as="geometry" />
        </mxCell>
        <mxCell id="zBIig5rJtYibUITmTjut-56" value="DrawVisitor" style="swimlane;fontStyle=1;align=center;verticalAlign=top;childLayout=stackLayout;horizontal=1;startSize=26;horizontalStack=0;resizeParent=1;resizeParentMax=0;resizeLast=0;collapsible=1;marginBottom=0;whiteSpace=wrap;html=1;" parent="WIyWlLk6GJQsqaUBKTNV-1" vertex="1">
          <mxGeometry x="-260" y="200" width="160" height="90" as="geometry" />
        </mxCell>
        <mxCell id="zBIig5rJtYibUITmTjut-58" value="" style="line;strokeWidth=1;fillColor=none;align=left;verticalAlign=middle;spacingTop=-1;spacingLeft=3;spacingRight=3;rotatable=0;labelPosition=right;points=[];portConstraint=eastwest;strokeColor=inherit;" parent="zBIig5rJtYibUITmTjut-56" vertex="1">
          <mxGeometry y="26" width="160" height="8" as="geometry" />
        </mxCell>
        <mxCell id="zBIig5rJtYibUITmTjut-59" value="+ visit(BoneModel)&lt;div&gt;+ visit(Composite)&lt;/div&gt;&lt;div&gt;+ visit(InvisibleObject)&lt;/div&gt;" style="text;strokeColor=none;fillColor=none;align=left;verticalAlign=top;spacingLeft=4;spacingRight=4;overflow=hidden;rotatable=0;points=[[0,0.5],[1,0.5]];portConstraint=eastwest;whiteSpace=wrap;html=1;" parent="zBIig5rJtYibUITmTjut-56" vertex="1">
          <mxGeometry y="34" width="160" height="56" as="geometry" />
        </mxCell>
        <mxCell id="zBIig5rJtYibUITmTjut-60" style="edgeStyle=orthogonalEdgeStyle;rounded=0;orthogonalLoop=1;jettySize=auto;html=1;entryX=0.491;entryY=1.009;entryDx=0;entryDy=0;entryPerimeter=0;" parent="WIyWlLk6GJQsqaUBKTNV-1" source="zBIig5rJtYibUITmTjut-56" target="zBIig5rJtYibUITmTjut-52" edge="1">
          <mxGeometry relative="1" as="geometry" />
        </mxCell>
        <mxCell id="L444cDoHKPkwUim30a2f-3" style="edgeStyle=orthogonalEdgeStyle;rounded=0;orthogonalLoop=1;jettySize=auto;html=1;entryX=1;entryY=0.5;entryDx=0;entryDy=0;endArrow=diamondThin;endFill=0;endSize=18;" parent="WIyWlLk6GJQsqaUBKTNV-1" target="msSt4nV4h8XotmUGHWJ2-77" edge="1">
          <mxGeometry relative="1" as="geometry">
            <mxPoint x="330" y="270" as="sourcePoint" />
            <Array as="points">
              <mxPoint x="160" y="270" />
              <mxPoint x="160" y="428" />
            </Array>
          </mxGeometry>
        </mxCell>
        <mxCell id="L444cDoHKPkwUim30a2f-4" style="edgeStyle=orthogonalEdgeStyle;rounded=0;orthogonalLoop=1;jettySize=auto;html=1;exitX=0.5;exitY=0;exitDx=0;exitDy=0;entryX=0.492;entryY=1;entryDx=0;entryDy=0;entryPerimeter=0;endArrow=diamondThin;endFill=0;endSize=18;" parent="WIyWlLk6GJQsqaUBKTNV-1" source="zBIig5rJtYibUITmTjut-20" target="zBIig5rJtYibUITmTjut-14" edge="1">
          <mxGeometry relative="1" as="geometry">
            <Array as="points">
              <mxPoint x="-400" y="410" />
              <mxPoint x="-400" y="290" />
              <mxPoint x="-401" y="290" />
            </Array>
          </mxGeometry>
        </mxCell>
        <mxCell id="L444cDoHKPkwUim30a2f-12" value="BaseModelLoadCommand" style="swimlane;fontStyle=1;align=center;verticalAlign=top;childLayout=stackLayout;horizontal=1;startSize=26;horizontalStack=0;resizeParent=1;resizeParentMax=0;resizeLast=0;collapsible=1;marginBottom=0;whiteSpace=wrap;html=1;" parent="WIyWlLk6GJQsqaUBKTNV-1" vertex="1">
          <mxGeometry x="1880" y="-680" width="160" height="70" as="geometry" />
        </mxCell>
        <mxCell id="L444cDoHKPkwUim30a2f-13" value="" style="line;strokeWidth=1;fillColor=none;align=left;verticalAlign=middle;spacingTop=-1;spacingLeft=3;spacingRight=3;rotatable=0;labelPosition=right;points=[];portConstraint=eastwest;strokeColor=inherit;" parent="L444cDoHKPkwUim30a2f-12" vertex="1">
          <mxGeometry y="26" width="160" height="8" as="geometry" />
        </mxCell>
        <mxCell id="L444cDoHKPkwUim30a2f-14" value="+ execute()&lt;div&gt;+ getDescription()&lt;br&gt;&lt;/div&gt;" style="text;strokeColor=none;fillColor=none;align=left;verticalAlign=top;spacingLeft=4;spacingRight=4;overflow=hidden;rotatable=0;points=[[0,0.5],[1,0.5]];portConstraint=eastwest;whiteSpace=wrap;html=1;" parent="L444cDoHKPkwUim30a2f-12" vertex="1">
          <mxGeometry y="34" width="160" height="36" as="geometry" />
        </mxCell>
        <mxCell id="L444cDoHKPkwUim30a2f-15" style="edgeStyle=orthogonalEdgeStyle;rounded=1;orthogonalLoop=1;jettySize=auto;html=1;exitX=0.5;exitY=0;exitDx=0;exitDy=0;entryX=0.387;entryY=0.052;entryDx=0;entryDy=0;entryPerimeter=0;curved=0;endArrow=none;endFill=0;" parent="WIyWlLk6GJQsqaUBKTNV-1" source="L444cDoHKPkwUim30a2f-12" target="VUxs2TTutxwEe3Bsk4AE-122" edge="1">
          <mxGeometry relative="1" as="geometry">
            <Array as="points">
              <mxPoint x="1960" y="-690" />
              <mxPoint x="1120" y="-690" />
            </Array>
          </mxGeometry>
        </mxCell>
        <mxCell id="L444cDoHKPkwUim30a2f-43" style="edgeStyle=orthogonalEdgeStyle;rounded=1;orthogonalLoop=1;jettySize=auto;html=1;exitX=1;exitY=0.75;exitDx=0;exitDy=0;curved=0;endArrow=none;endFill=0;" parent="WIyWlLk6GJQsqaUBKTNV-1" source="L444cDoHKPkwUim30a2f-16" target="L444cDoHKPkwUim30a2f-37" edge="1">
          <mxGeometry relative="1" as="geometry">
            <Array as="points">
              <mxPoint x="1960" y="-537" />
            </Array>
          </mxGeometry>
        </mxCell>
        <mxCell id="L444cDoHKPkwUim30a2f-16" value="LoadMatrixModel" style="swimlane;fontStyle=1;align=center;verticalAlign=top;childLayout=stackLayout;horizontal=1;startSize=26;horizontalStack=0;resizeParent=1;resizeParentMax=0;resizeLast=0;collapsible=1;marginBottom=0;whiteSpace=wrap;html=1;" parent="WIyWlLk6GJQsqaUBKTNV-1" vertex="1">
          <mxGeometry x="1760" y="-590" width="160" height="70" as="geometry" />
        </mxCell>
        <mxCell id="L444cDoHKPkwUim30a2f-17" value="" style="line;strokeWidth=1;fillColor=none;align=left;verticalAlign=middle;spacingTop=-1;spacingLeft=3;spacingRight=3;rotatable=0;labelPosition=right;points=[];portConstraint=eastwest;strokeColor=inherit;" parent="L444cDoHKPkwUim30a2f-16" vertex="1">
          <mxGeometry y="26" width="160" height="8" as="geometry" />
        </mxCell>
        <mxCell id="L444cDoHKPkwUim30a2f-18" value="+ execute()&lt;div&gt;+ getDescription()&lt;br&gt;&lt;/div&gt;" style="text;strokeColor=none;fillColor=none;align=left;verticalAlign=top;spacingLeft=4;spacingRight=4;overflow=hidden;rotatable=0;points=[[0,0.5],[1,0.5]];portConstraint=eastwest;whiteSpace=wrap;html=1;" parent="L444cDoHKPkwUim30a2f-16" vertex="1">
          <mxGeometry y="34" width="160" height="36" as="geometry" />
        </mxCell>
        <mxCell id="L444cDoHKPkwUim30a2f-19" value="LoadListModel" style="swimlane;fontStyle=1;align=center;verticalAlign=top;childLayout=stackLayout;horizontal=1;startSize=26;horizontalStack=0;resizeParent=1;resizeParentMax=0;resizeLast=0;collapsible=1;marginBottom=0;whiteSpace=wrap;html=1;" parent="WIyWlLk6GJQsqaUBKTNV-1" vertex="1">
          <mxGeometry x="2000" y="-590" width="160" height="70" as="geometry" />
        </mxCell>
        <mxCell id="L444cDoHKPkwUim30a2f-20" value="" style="line;strokeWidth=1;fillColor=none;align=left;verticalAlign=middle;spacingTop=-1;spacingLeft=3;spacingRight=3;rotatable=0;labelPosition=right;points=[];portConstraint=eastwest;strokeColor=inherit;" parent="L444cDoHKPkwUim30a2f-19" vertex="1">
          <mxGeometry y="26" width="160" height="8" as="geometry" />
        </mxCell>
        <mxCell id="L444cDoHKPkwUim30a2f-21" value="+ execute()&lt;div&gt;+ getDescription()&lt;br&gt;&lt;/div&gt;" style="text;strokeColor=none;fillColor=none;align=left;verticalAlign=top;spacingLeft=4;spacingRight=4;overflow=hidden;rotatable=0;points=[[0,0.5],[1,0.5]];portConstraint=eastwest;whiteSpace=wrap;html=1;" parent="L444cDoHKPkwUim30a2f-19" vertex="1">
          <mxGeometry y="34" width="160" height="36" as="geometry" />
        </mxCell>
        <mxCell id="L444cDoHKPkwUim30a2f-22" value="BaseModelLoadDecorator" style="swimlane;fontStyle=1;align=center;verticalAlign=top;childLayout=stackLayout;horizontal=1;startSize=26;horizontalStack=0;resizeParent=1;resizeParentMax=0;resizeLast=0;collapsible=1;marginBottom=0;whiteSpace=wrap;html=1;" parent="WIyWlLk6GJQsqaUBKTNV-1" vertex="1">
          <mxGeometry x="2320" y="-590" width="160" height="70" as="geometry" />
        </mxCell>
        <mxCell id="L444cDoHKPkwUim30a2f-23" value="" style="line;strokeWidth=1;fillColor=none;align=left;verticalAlign=middle;spacingTop=-1;spacingLeft=3;spacingRight=3;rotatable=0;labelPosition=right;points=[];portConstraint=eastwest;strokeColor=inherit;" parent="L444cDoHKPkwUim30a2f-22" vertex="1">
          <mxGeometry y="26" width="160" height="8" as="geometry" />
        </mxCell>
        <mxCell id="L444cDoHKPkwUim30a2f-24" value="+ execute()&lt;div&gt;+ getDescription()&lt;br&gt;&lt;/div&gt;" style="text;strokeColor=none;fillColor=none;align=left;verticalAlign=top;spacingLeft=4;spacingRight=4;overflow=hidden;rotatable=0;points=[[0,0.5],[1,0.5]];portConstraint=eastwest;whiteSpace=wrap;html=1;" parent="L444cDoHKPkwUim30a2f-22" vertex="1">
          <mxGeometry y="34" width="160" height="36" as="geometry" />
        </mxCell>
        <mxCell id="L444cDoHKPkwUim30a2f-25" value="SqliteModelLoadDecorator" style="swimlane;fontStyle=1;align=center;verticalAlign=top;childLayout=stackLayout;horizontal=1;startSize=26;horizontalStack=0;resizeParent=1;resizeParentMax=0;resizeLast=0;collapsible=1;marginBottom=0;whiteSpace=wrap;html=1;" parent="WIyWlLk6GJQsqaUBKTNV-1" vertex="1">
          <mxGeometry x="2200" y="-480" width="160" height="70" as="geometry" />
        </mxCell>
        <mxCell id="L444cDoHKPkwUim30a2f-26" value="" style="line;strokeWidth=1;fillColor=none;align=left;verticalAlign=middle;spacingTop=-1;spacingLeft=3;spacingRight=3;rotatable=0;labelPosition=right;points=[];portConstraint=eastwest;strokeColor=inherit;" parent="L444cDoHKPkwUim30a2f-25" vertex="1">
          <mxGeometry y="26" width="160" height="8" as="geometry" />
        </mxCell>
        <mxCell id="L444cDoHKPkwUim30a2f-27" value="+ execute()&lt;div&gt;+ getDescription()&lt;br&gt;&lt;/div&gt;" style="text;strokeColor=none;fillColor=none;align=left;verticalAlign=top;spacingLeft=4;spacingRight=4;overflow=hidden;rotatable=0;points=[[0,0.5],[1,0.5]];portConstraint=eastwest;whiteSpace=wrap;html=1;" parent="L444cDoHKPkwUim30a2f-25" vertex="1">
          <mxGeometry y="34" width="160" height="36" as="geometry" />
        </mxCell>
        <mxCell id="L444cDoHKPkwUim30a2f-28" value="TxtLoadDecorator" style="swimlane;fontStyle=1;align=center;verticalAlign=top;childLayout=stackLayout;horizontal=1;startSize=26;horizontalStack=0;resizeParent=1;resizeParentMax=0;resizeLast=0;collapsible=1;marginBottom=0;whiteSpace=wrap;html=1;" parent="WIyWlLk6GJQsqaUBKTNV-1" vertex="1">
          <mxGeometry x="2440" y="-480" width="160" height="70" as="geometry" />
        </mxCell>
        <mxCell id="L444cDoHKPkwUim30a2f-29" value="" style="line;strokeWidth=1;fillColor=none;align=left;verticalAlign=middle;spacingTop=-1;spacingLeft=3;spacingRight=3;rotatable=0;labelPosition=right;points=[];portConstraint=eastwest;strokeColor=inherit;" parent="L444cDoHKPkwUim30a2f-28" vertex="1">
          <mxGeometry y="26" width="160" height="8" as="geometry" />
        </mxCell>
        <mxCell id="L444cDoHKPkwUim30a2f-30" value="+ execute()&lt;div&gt;+ getDescription()&lt;br&gt;&lt;/div&gt;" style="text;strokeColor=none;fillColor=none;align=left;verticalAlign=top;spacingLeft=4;spacingRight=4;overflow=hidden;rotatable=0;points=[[0,0.5],[1,0.5]];portConstraint=eastwest;whiteSpace=wrap;html=1;" parent="L444cDoHKPkwUim30a2f-28" vertex="1">
          <mxGeometry y="34" width="160" height="36" as="geometry" />
        </mxCell>
        <mxCell id="L444cDoHKPkwUim30a2f-32" style="edgeStyle=orthogonalEdgeStyle;rounded=0;orthogonalLoop=1;jettySize=auto;html=1;exitX=1;exitY=0.5;exitDx=0;exitDy=0;entryX=1;entryY=0.5;entryDx=0;entryDy=0;endArrow=diamondThin;endFill=0;endSize=18;" parent="WIyWlLk6GJQsqaUBKTNV-1" source="L444cDoHKPkwUim30a2f-14" target="L444cDoHKPkwUim30a2f-24" edge="1">
          <mxGeometry relative="1" as="geometry" />
        </mxCell>
        <mxCell id="L444cDoHKPkwUim30a2f-37" value="" style="shape=waypoint;sketch=0;fillStyle=solid;size=6;pointerEvents=1;points=[];fillColor=none;resizable=0;rotatable=0;perimeter=centerPerimeter;snapToPoint=1;" parent="WIyWlLk6GJQsqaUBKTNV-1" vertex="1">
          <mxGeometry x="1950" y="-580" width="20" height="20" as="geometry" />
        </mxCell>
        <mxCell id="L444cDoHKPkwUim30a2f-38" value="" style="shape=waypoint;sketch=0;fillStyle=solid;size=6;pointerEvents=1;points=[];fillColor=none;resizable=0;rotatable=0;perimeter=centerPerimeter;snapToPoint=1;" parent="WIyWlLk6GJQsqaUBKTNV-1" vertex="1">
          <mxGeometry x="2390" y="-460" width="20" height="20" as="geometry" />
        </mxCell>
        <mxCell id="L444cDoHKPkwUim30a2f-39" style="edgeStyle=orthogonalEdgeStyle;rounded=1;orthogonalLoop=1;jettySize=auto;html=1;entryX=0.638;entryY=0.988;entryDx=0;entryDy=0;entryPerimeter=0;endArrow=none;endFill=0;curved=0;" parent="WIyWlLk6GJQsqaUBKTNV-1" source="L444cDoHKPkwUim30a2f-30" target="L444cDoHKPkwUim30a2f-38" edge="1">
          <mxGeometry relative="1" as="geometry">
            <Array as="points">
              <mxPoint x="2400" y="-428" />
            </Array>
          </mxGeometry>
        </mxCell>
        <mxCell id="L444cDoHKPkwUim30a2f-40" style="edgeStyle=orthogonalEdgeStyle;rounded=1;orthogonalLoop=1;jettySize=auto;html=1;exitX=1;exitY=0.5;exitDx=0;exitDy=0;entryX=0.581;entryY=0.873;entryDx=0;entryDy=0;entryPerimeter=0;endArrow=none;endFill=0;curved=0;" parent="WIyWlLk6GJQsqaUBKTNV-1" source="L444cDoHKPkwUim30a2f-27" target="L444cDoHKPkwUim30a2f-38" edge="1">
          <mxGeometry relative="1" as="geometry">
            <Array as="points">
              <mxPoint x="2400" y="-428" />
            </Array>
          </mxGeometry>
        </mxCell>
        <mxCell id="L444cDoHKPkwUim30a2f-41" style="edgeStyle=orthogonalEdgeStyle;rounded=0;orthogonalLoop=1;jettySize=auto;html=1;entryX=0.5;entryY=0.983;entryDx=0;entryDy=0;entryPerimeter=0;" parent="WIyWlLk6GJQsqaUBKTNV-1" source="L444cDoHKPkwUim30a2f-38" target="L444cDoHKPkwUim30a2f-24" edge="1">
          <mxGeometry relative="1" as="geometry" />
        </mxCell>
        <mxCell id="L444cDoHKPkwUim30a2f-42" style="edgeStyle=orthogonalEdgeStyle;rounded=1;orthogonalLoop=1;jettySize=auto;html=1;exitX=0;exitY=0.5;exitDx=0;exitDy=0;entryX=0.658;entryY=0.681;entryDx=0;entryDy=0;entryPerimeter=0;curved=0;endArrow=none;endFill=0;" parent="WIyWlLk6GJQsqaUBKTNV-1" source="L444cDoHKPkwUim30a2f-21" target="L444cDoHKPkwUim30a2f-37" edge="1">
          <mxGeometry relative="1" as="geometry" />
        </mxCell>
        <mxCell id="L444cDoHKPkwUim30a2f-44" style="edgeStyle=orthogonalEdgeStyle;rounded=0;orthogonalLoop=1;jettySize=auto;html=1;entryX=0.5;entryY=0.994;entryDx=0;entryDy=0;entryPerimeter=0;" parent="WIyWlLk6GJQsqaUBKTNV-1" source="L444cDoHKPkwUim30a2f-37" target="L444cDoHKPkwUim30a2f-14" edge="1">
          <mxGeometry relative="1" as="geometry" />
        </mxCell>
        <mxCell id="m3gc_QERRkKE4duBlJ67-3" value="SnapshotManager" style="swimlane;fontStyle=1;align=center;verticalAlign=top;childLayout=stackLayout;horizontal=1;startSize=26;horizontalStack=0;resizeParent=1;resizeParentMax=0;resizeLast=0;collapsible=1;marginBottom=0;whiteSpace=wrap;html=1;" parent="WIyWlLk6GJQsqaUBKTNV-1" vertex="1">
          <mxGeometry x="-800" y="40" width="160" height="90" as="geometry" />
        </mxCell>
        <mxCell id="m3gc_QERRkKE4duBlJ67-4" value="" style="line;strokeWidth=1;fillColor=none;align=left;verticalAlign=middle;spacingTop=-1;spacingLeft=3;spacingRight=3;rotatable=0;labelPosition=right;points=[];portConstraint=eastwest;strokeColor=inherit;" parent="m3gc_QERRkKE4duBlJ67-3" vertex="1">
          <mxGeometry y="26" width="160" height="8" as="geometry" />
        </mxCell>
        <mxCell id="m3gc_QERRkKE4duBlJ67-5" value="&lt;div&gt;+ add()&lt;/div&gt;&lt;div&gt;+ pop()&lt;/div&gt;&lt;div&gt;+ get()&lt;/div&gt;" style="text;strokeColor=none;fillColor=none;align=left;verticalAlign=top;spacingLeft=4;spacingRight=4;overflow=hidden;rotatable=0;points=[[0,0.5],[1,0.5]];portConstraint=eastwest;whiteSpace=wrap;html=1;" parent="m3gc_QERRkKE4duBlJ67-3" vertex="1">
          <mxGeometry y="34" width="160" height="56" as="geometry" />
        </mxCell>
        <mxCell id="m3gc_QERRkKE4duBlJ67-13" style="edgeStyle=orthogonalEdgeStyle;rounded=0;orthogonalLoop=1;jettySize=auto;html=1;exitX=0.5;exitY=0;exitDx=0;exitDy=0;entryX=0.75;entryY=0;entryDx=0;entryDy=0;endArrow=diamondThin;endFill=0;endSize=18;" parent="WIyWlLk6GJQsqaUBKTNV-1" source="m3gc_QERRkKE4duBlJ67-6" target="m3gc_QERRkKE4duBlJ67-3" edge="1">
          <mxGeometry relative="1" as="geometry" />
        </mxCell>
        <mxCell id="m3gc_QERRkKE4duBlJ67-6" value="SceneMemento" style="swimlane;fontStyle=1;align=center;verticalAlign=top;childLayout=stackLayout;horizontal=1;startSize=26;horizontalStack=0;resizeParent=1;resizeParentMax=0;resizeLast=0;collapsible=1;marginBottom=0;whiteSpace=wrap;html=1;" parent="WIyWlLk6GJQsqaUBKTNV-1" vertex="1">
          <mxGeometry x="140" y="64" width="160" height="60" as="geometry" />
        </mxCell>
        <mxCell id="m3gc_QERRkKE4duBlJ67-8" value="" style="line;strokeWidth=1;fillColor=none;align=left;verticalAlign=middle;spacingTop=-1;spacingLeft=3;spacingRight=3;rotatable=0;labelPosition=right;points=[];portConstraint=eastwest;strokeColor=inherit;" parent="m3gc_QERRkKE4duBlJ67-6" vertex="1">
          <mxGeometry y="26" width="160" height="8" as="geometry" />
        </mxCell>
        <mxCell id="m3gc_QERRkKE4duBlJ67-9" value="+ get()" style="text;strokeColor=none;fillColor=none;align=left;verticalAlign=top;spacingLeft=4;spacingRight=4;overflow=hidden;rotatable=0;points=[[0,0.5],[1,0.5]];portConstraint=eastwest;whiteSpace=wrap;html=1;" parent="m3gc_QERRkKE4duBlJ67-6" vertex="1">
          <mxGeometry y="34" width="160" height="26" as="geometry" />
        </mxCell>
        <mxCell id="m3gc_QERRkKE4duBlJ67-14" style="edgeStyle=orthogonalEdgeStyle;rounded=1;orthogonalLoop=1;jettySize=auto;html=1;exitX=0.5;exitY=0;exitDx=0;exitDy=0;entryX=0.793;entryY=0.893;entryDx=0;entryDy=0;entryPerimeter=0;curved=0;endArrow=none;endFill=0;" parent="WIyWlLk6GJQsqaUBKTNV-1" source="m3gc_QERRkKE4duBlJ67-3" target="VUxs2TTutxwEe3Bsk4AE-38" edge="1">
          <mxGeometry relative="1" as="geometry">
            <Array as="points">
              <mxPoint x="-720" y="-10" />
              <mxPoint x="-480" y="-10" />
            </Array>
          </mxGeometry>
        </mxCell>
        <mxCell id="FXp_Wr4skeSgav2R6Piw-0" value="BoneModelReader" style="swimlane;fontStyle=1;align=center;verticalAlign=top;childLayout=stackLayout;horizontal=1;startSize=26;horizontalStack=0;resizeParent=1;resizeParentMax=0;resizeLast=0;collapsible=1;marginBottom=0;whiteSpace=wrap;html=1;" parent="WIyWlLk6GJQsqaUBKTNV-1" vertex="1">
          <mxGeometry x="-2030" y="274" width="160" height="130" as="geometry" />
        </mxCell>
        <mxCell id="FXp_Wr4skeSgav2R6Piw-1" value="" style="line;strokeWidth=1;fillColor=none;align=left;verticalAlign=middle;spacingTop=-1;spacingLeft=3;spacingRight=3;rotatable=0;labelPosition=right;points=[];portConstraint=eastwest;strokeColor=inherit;" parent="FXp_Wr4skeSgav2R6Piw-0" vertex="1">
          <mxGeometry y="26" width="160" height="8" as="geometry" />
        </mxCell>
        <mxCell id="FXp_Wr4skeSgav2R6Piw-2" value="+ open()&lt;div&gt;+ close()&lt;/div&gt;&lt;div&gt;+ readPoints()&lt;/div&gt;&lt;div&gt;+ readEdges()&lt;/div&gt;&lt;div&gt;+ havePoints()&lt;/div&gt;&lt;div&gt;+ haveEdges()&lt;/div&gt;" style="text;strokeColor=none;fillColor=none;align=left;verticalAlign=top;spacingLeft=4;spacingRight=4;overflow=hidden;rotatable=0;points=[[0,0.5],[1,0.5]];portConstraint=eastwest;whiteSpace=wrap;html=1;" parent="FXp_Wr4skeSgav2R6Piw-0" vertex="1">
          <mxGeometry y="34" width="160" height="96" as="geometry" />
        </mxCell>
        <mxCell id="FXp_Wr4skeSgav2R6Piw-3" value="&amp;nbsp;CsvModelReader" style="swimlane;fontStyle=1;align=center;verticalAlign=top;childLayout=stackLayout;horizontal=1;startSize=26;horizontalStack=0;resizeParent=1;resizeParentMax=0;resizeLast=0;collapsible=1;marginBottom=0;whiteSpace=wrap;html=1;" parent="WIyWlLk6GJQsqaUBKTNV-1" vertex="1">
          <mxGeometry x="-1910" y="476" width="160" height="134" as="geometry" />
        </mxCell>
        <mxCell id="FXp_Wr4skeSgav2R6Piw-4" value="" style="line;strokeWidth=1;fillColor=none;align=left;verticalAlign=middle;spacingTop=-1;spacingLeft=3;spacingRight=3;rotatable=0;labelPosition=right;points=[];portConstraint=eastwest;strokeColor=inherit;" parent="FXp_Wr4skeSgav2R6Piw-3" vertex="1">
          <mxGeometry y="26" width="160" height="8" as="geometry" />
        </mxCell>
        <mxCell id="FXp_Wr4skeSgav2R6Piw-5" value="+ open()&lt;div&gt;+ close()&lt;/div&gt;&lt;div&gt;+ readPoints()&lt;/div&gt;&lt;div&gt;+ readEdges()&lt;/div&gt;&lt;div&gt;+ havePoints()&lt;/div&gt;&lt;div&gt;+ haveEdges()&lt;/div&gt;" style="text;strokeColor=none;fillColor=none;align=left;verticalAlign=top;spacingLeft=4;spacingRight=4;overflow=hidden;rotatable=0;points=[[0,0.5],[1,0.5]];portConstraint=eastwest;whiteSpace=wrap;html=1;" parent="FXp_Wr4skeSgav2R6Piw-3" vertex="1">
          <mxGeometry y="34" width="160" height="100" as="geometry" />
        </mxCell>
        <mxCell id="FXp_Wr4skeSgav2R6Piw-6" style="edgeStyle=orthogonalEdgeStyle;rounded=1;orthogonalLoop=1;jettySize=auto;html=1;exitX=0.5;exitY=0;exitDx=0;exitDy=0;endArrow=none;endFill=0;curved=0;" parent="WIyWlLk6GJQsqaUBKTNV-1" source="FXp_Wr4skeSgav2R6Piw-7" target="FXp_Wr4skeSgav2R6Piw-10" edge="1">
          <mxGeometry relative="1" as="geometry">
            <Array as="points">
              <mxPoint x="-2070" y="464" />
              <mxPoint x="-1950" y="464" />
            </Array>
          </mxGeometry>
        </mxCell>
        <mxCell id="FXp_Wr4skeSgav2R6Piw-7" value="TxtModelReader" style="swimlane;fontStyle=1;align=center;verticalAlign=top;childLayout=stackLayout;horizontal=1;startSize=26;horizontalStack=0;resizeParent=1;resizeParentMax=0;resizeLast=0;collapsible=1;marginBottom=0;whiteSpace=wrap;html=1;" parent="WIyWlLk6GJQsqaUBKTNV-1" vertex="1">
          <mxGeometry x="-2150" y="476" width="160" height="134" as="geometry" />
        </mxCell>
        <mxCell id="FXp_Wr4skeSgav2R6Piw-8" value="" style="line;strokeWidth=1;fillColor=none;align=left;verticalAlign=middle;spacingTop=-1;spacingLeft=3;spacingRight=3;rotatable=0;labelPosition=right;points=[];portConstraint=eastwest;strokeColor=inherit;" parent="FXp_Wr4skeSgav2R6Piw-7" vertex="1">
          <mxGeometry y="26" width="160" height="8" as="geometry" />
        </mxCell>
        <mxCell id="FXp_Wr4skeSgav2R6Piw-9" value="+ open()&lt;div&gt;+ close()&lt;/div&gt;&lt;div&gt;+ readPoint(s)&lt;/div&gt;&lt;div&gt;+ readEdges()&lt;/div&gt;&lt;div&gt;+ havePoints()&lt;/div&gt;&lt;div&gt;+ haveEdges()&lt;/div&gt;" style="text;strokeColor=none;fillColor=none;align=left;verticalAlign=top;spacingLeft=4;spacingRight=4;overflow=hidden;rotatable=0;points=[[0,0.5],[1,0.5]];portConstraint=eastwest;whiteSpace=wrap;html=1;" parent="FXp_Wr4skeSgav2R6Piw-7" vertex="1">
          <mxGeometry y="34" width="160" height="100" as="geometry" />
        </mxCell>
        <mxCell id="FXp_Wr4skeSgav2R6Piw-10" value="" style="shape=waypoint;sketch=0;fillStyle=solid;size=6;pointerEvents=1;points=[];fillColor=none;resizable=0;rotatable=0;perimeter=centerPerimeter;snapToPoint=1;" parent="WIyWlLk6GJQsqaUBKTNV-1" vertex="1">
          <mxGeometry x="-1960" y="424" width="20" height="20" as="geometry" />
        </mxCell>
        <mxCell id="FXp_Wr4skeSgav2R6Piw-11" style="edgeStyle=orthogonalEdgeStyle;rounded=1;orthogonalLoop=1;jettySize=auto;html=1;entryX=0.9;entryY=0.723;entryDx=0;entryDy=0;entryPerimeter=0;exitX=0.5;exitY=0;exitDx=0;exitDy=0;endArrow=none;endFill=0;curved=0;" parent="WIyWlLk6GJQsqaUBKTNV-1" source="FXp_Wr4skeSgav2R6Piw-3" target="FXp_Wr4skeSgav2R6Piw-10" edge="1">
          <mxGeometry relative="1" as="geometry">
            <Array as="points">
              <mxPoint x="-1830" y="464" />
              <mxPoint x="-1950" y="464" />
            </Array>
          </mxGeometry>
        </mxCell>
        <mxCell id="FXp_Wr4skeSgav2R6Piw-12" style="edgeStyle=orthogonalEdgeStyle;rounded=0;orthogonalLoop=1;jettySize=auto;html=1;entryX=0.492;entryY=1.006;entryDx=0;entryDy=0;entryPerimeter=0;" parent="WIyWlLk6GJQsqaUBKTNV-1" source="FXp_Wr4skeSgav2R6Piw-10" target="FXp_Wr4skeSgav2R6Piw-2" edge="1">
          <mxGeometry relative="1" as="geometry" />
        </mxCell>
        <mxCell id="FXp_Wr4skeSgav2R6Piw-17" value="BaseReader&lt;div&gt;&lt;br&gt;&lt;/div&gt;" style="swimlane;fontStyle=1;align=center;verticalAlign=top;childLayout=stackLayout;horizontal=1;startSize=26;horizontalStack=0;resizeParent=1;resizeParentMax=0;resizeLast=0;collapsible=1;marginBottom=0;whiteSpace=wrap;html=1;" parent="WIyWlLk6GJQsqaUBKTNV-1" vertex="1">
          <mxGeometry x="-2030" y="95" width="160" height="90" as="geometry" />
        </mxCell>
        <mxCell id="FXp_Wr4skeSgav2R6Piw-19" value="" style="line;strokeWidth=1;fillColor=none;align=left;verticalAlign=middle;spacingTop=-1;spacingLeft=3;spacingRight=3;rotatable=0;labelPosition=right;points=[];portConstraint=eastwest;strokeColor=inherit;" parent="FXp_Wr4skeSgav2R6Piw-17" vertex="1">
          <mxGeometry y="26" width="160" height="8" as="geometry" />
        </mxCell>
        <mxCell id="FXp_Wr4skeSgav2R6Piw-20" value="+ open()&lt;div&gt;+ close()&lt;/div&gt;&lt;div&gt;+ opened()&lt;/div&gt;" style="text;strokeColor=none;fillColor=none;align=left;verticalAlign=top;spacingLeft=4;spacingRight=4;overflow=hidden;rotatable=0;points=[[0,0.5],[1,0.5]];portConstraint=eastwest;whiteSpace=wrap;html=1;" parent="FXp_Wr4skeSgav2R6Piw-17" vertex="1">
          <mxGeometry y="34" width="160" height="56" as="geometry" />
        </mxCell>
        <mxCell id="FXp_Wr4skeSgav2R6Piw-21" style="edgeStyle=orthogonalEdgeStyle;rounded=0;orthogonalLoop=1;jettySize=auto;html=1;entryX=0.496;entryY=0.997;entryDx=0;entryDy=0;entryPerimeter=0;" parent="WIyWlLk6GJQsqaUBKTNV-1" source="FXp_Wr4skeSgav2R6Piw-0" target="FXp_Wr4skeSgav2R6Piw-20" edge="1">
          <mxGeometry relative="1" as="geometry" />
        </mxCell>
        <mxCell id="FXp_Wr4skeSgav2R6Piw-22" value="BaseReaderCreator" style="swimlane;fontStyle=1;align=center;verticalAlign=top;childLayout=stackLayout;horizontal=1;startSize=26;horizontalStack=0;resizeParent=1;resizeParentMax=0;resizeLast=0;collapsible=1;marginBottom=0;whiteSpace=wrap;html=1;" parent="WIyWlLk6GJQsqaUBKTNV-1" vertex="1">
          <mxGeometry x="-1640" y="40" width="160" height="60" as="geometry" />
        </mxCell>
        <mxCell id="FXp_Wr4skeSgav2R6Piw-24" value="" style="line;strokeWidth=1;fillColor=none;align=left;verticalAlign=middle;spacingTop=-1;spacingLeft=3;spacingRight=3;rotatable=0;labelPosition=right;points=[];portConstraint=eastwest;strokeColor=inherit;" parent="FXp_Wr4skeSgav2R6Piw-22" vertex="1">
          <mxGeometry y="26" width="160" height="8" as="geometry" />
        </mxCell>
        <mxCell id="FXp_Wr4skeSgav2R6Piw-25" value="+ create()" style="text;strokeColor=none;fillColor=none;align=left;verticalAlign=top;spacingLeft=4;spacingRight=4;overflow=hidden;rotatable=0;points=[[0,0.5],[1,0.5]];portConstraint=eastwest;whiteSpace=wrap;html=1;" parent="FXp_Wr4skeSgav2R6Piw-22" vertex="1">
          <mxGeometry y="34" width="160" height="26" as="geometry" />
        </mxCell>
        <mxCell id="FXp_Wr4skeSgav2R6Piw-30" value="TxtModelReaderCreator" style="swimlane;fontStyle=1;align=center;verticalAlign=top;childLayout=stackLayout;horizontal=1;startSize=26;horizontalStack=0;resizeParent=1;resizeParentMax=0;resizeLast=0;collapsible=1;marginBottom=0;whiteSpace=wrap;html=1;" parent="WIyWlLk6GJQsqaUBKTNV-1" vertex="1">
          <mxGeometry x="-1760" y="200" width="160" height="60" as="geometry" />
        </mxCell>
        <mxCell id="FXp_Wr4skeSgav2R6Piw-32" value="" style="line;strokeWidth=1;fillColor=none;align=left;verticalAlign=middle;spacingTop=-1;spacingLeft=3;spacingRight=3;rotatable=0;labelPosition=right;points=[];portConstraint=eastwest;strokeColor=inherit;" parent="FXp_Wr4skeSgav2R6Piw-30" vertex="1">
          <mxGeometry y="26" width="160" height="8" as="geometry" />
        </mxCell>
        <mxCell id="FXp_Wr4skeSgav2R6Piw-33" value="+ create()" style="text;strokeColor=none;fillColor=none;align=left;verticalAlign=top;spacingLeft=4;spacingRight=4;overflow=hidden;rotatable=0;points=[[0,0.5],[1,0.5]];portConstraint=eastwest;whiteSpace=wrap;html=1;" parent="FXp_Wr4skeSgav2R6Piw-30" vertex="1">
          <mxGeometry y="34" width="160" height="26" as="geometry" />
        </mxCell>
        <mxCell id="FXp_Wr4skeSgav2R6Piw-40" style="edgeStyle=orthogonalEdgeStyle;rounded=1;orthogonalLoop=1;jettySize=auto;html=1;exitX=0.5;exitY=0;exitDx=0;exitDy=0;endArrow=none;endFill=0;curved=0;" parent="WIyWlLk6GJQsqaUBKTNV-1" source="FXp_Wr4skeSgav2R6Piw-34" target="FXp_Wr4skeSgav2R6Piw-38" edge="1">
          <mxGeometry relative="1" as="geometry">
            <Array as="points">
              <mxPoint x="-1440" y="185" />
              <mxPoint x="-1560" y="185" />
            </Array>
          </mxGeometry>
        </mxCell>
        <mxCell id="FXp_Wr4skeSgav2R6Piw-34" value="CsvModelReaderCreator" style="swimlane;fontStyle=1;align=center;verticalAlign=top;childLayout=stackLayout;horizontal=1;startSize=26;horizontalStack=0;resizeParent=1;resizeParentMax=0;resizeLast=0;collapsible=1;marginBottom=0;whiteSpace=wrap;html=1;" parent="WIyWlLk6GJQsqaUBKTNV-1" vertex="1">
          <mxGeometry x="-1520" y="200" width="160" height="60" as="geometry" />
        </mxCell>
        <mxCell id="FXp_Wr4skeSgav2R6Piw-35" value="" style="line;strokeWidth=1;fillColor=none;align=left;verticalAlign=middle;spacingTop=-1;spacingLeft=3;spacingRight=3;rotatable=0;labelPosition=right;points=[];portConstraint=eastwest;strokeColor=inherit;" parent="FXp_Wr4skeSgav2R6Piw-34" vertex="1">
          <mxGeometry y="26" width="160" height="8" as="geometry" />
        </mxCell>
        <mxCell id="FXp_Wr4skeSgav2R6Piw-36" value="+ create()" style="text;strokeColor=none;fillColor=none;align=left;verticalAlign=top;spacingLeft=4;spacingRight=4;overflow=hidden;rotatable=0;points=[[0,0.5],[1,0.5]];portConstraint=eastwest;whiteSpace=wrap;html=1;" parent="FXp_Wr4skeSgav2R6Piw-34" vertex="1">
          <mxGeometry y="34" width="160" height="26" as="geometry" />
        </mxCell>
        <mxCell id="FXp_Wr4skeSgav2R6Piw-38" value="" style="shape=waypoint;sketch=0;fillStyle=solid;size=6;pointerEvents=1;points=[];fillColor=none;resizable=0;rotatable=0;perimeter=centerPerimeter;snapToPoint=1;" parent="WIyWlLk6GJQsqaUBKTNV-1" vertex="1">
          <mxGeometry x="-1570" y="145" width="20" height="20" as="geometry" />
        </mxCell>
        <mxCell id="FXp_Wr4skeSgav2R6Piw-39" style="edgeStyle=orthogonalEdgeStyle;rounded=1;orthogonalLoop=1;jettySize=auto;html=1;exitX=0.5;exitY=0;exitDx=0;exitDy=0;entryX=0.571;entryY=0.933;entryDx=0;entryDy=0;entryPerimeter=0;endArrow=none;endFill=0;curved=0;" parent="WIyWlLk6GJQsqaUBKTNV-1" source="FXp_Wr4skeSgav2R6Piw-30" target="FXp_Wr4skeSgav2R6Piw-38" edge="1">
          <mxGeometry relative="1" as="geometry">
            <Array as="points">
              <mxPoint x="-1680" y="185" />
              <mxPoint x="-1560" y="185" />
            </Array>
          </mxGeometry>
        </mxCell>
        <mxCell id="FXp_Wr4skeSgav2R6Piw-41" style="edgeStyle=orthogonalEdgeStyle;rounded=0;orthogonalLoop=1;jettySize=auto;html=1;entryX=0.501;entryY=0.995;entryDx=0;entryDy=0;entryPerimeter=0;" parent="WIyWlLk6GJQsqaUBKTNV-1" source="FXp_Wr4skeSgav2R6Piw-38" target="FXp_Wr4skeSgav2R6Piw-25" edge="1">
          <mxGeometry relative="1" as="geometry" />
        </mxCell>
        <mxCell id="FXp_Wr4skeSgav2R6Piw-42" value="ReaderSolution" style="swimlane;fontStyle=1;align=center;verticalAlign=top;childLayout=stackLayout;horizontal=1;startSize=26;horizontalStack=0;resizeParent=1;resizeParentMax=0;resizeLast=0;collapsible=1;marginBottom=0;whiteSpace=wrap;html=1;" parent="WIyWlLk6GJQsqaUBKTNV-1" vertex="1">
          <mxGeometry x="-1380" y="-90" width="160" height="70" as="geometry" />
        </mxCell>
        <mxCell id="FXp_Wr4skeSgav2R6Piw-44" value="" style="line;strokeWidth=1;fillColor=none;align=left;verticalAlign=middle;spacingTop=-1;spacingLeft=3;spacingRight=3;rotatable=0;labelPosition=right;points=[];portConstraint=eastwest;strokeColor=inherit;" parent="FXp_Wr4skeSgav2R6Piw-42" vertex="1">
          <mxGeometry y="26" width="160" height="8" as="geometry" />
        </mxCell>
        <mxCell id="FXp_Wr4skeSgav2R6Piw-45" value="+ register()&lt;div&gt;+ create()&lt;/div&gt;" style="text;strokeColor=none;fillColor=none;align=left;verticalAlign=top;spacingLeft=4;spacingRight=4;overflow=hidden;rotatable=0;points=[[0,0.5],[1,0.5]];portConstraint=eastwest;whiteSpace=wrap;html=1;" parent="FXp_Wr4skeSgav2R6Piw-42" vertex="1">
          <mxGeometry y="34" width="160" height="36" as="geometry" />
        </mxCell>
        <mxCell id="FXp_Wr4skeSgav2R6Piw-46" style="edgeStyle=orthogonalEdgeStyle;rounded=0;orthogonalLoop=1;jettySize=auto;html=1;exitX=1;exitY=0.5;exitDx=0;exitDy=0;entryX=0;entryY=0.5;entryDx=0;entryDy=0;endArrow=diamondThin;endFill=0;endSize=18;" parent="WIyWlLk6GJQsqaUBKTNV-1" source="FXp_Wr4skeSgav2R6Piw-45" target="VUxs2TTutxwEe3Bsk4AE-7" edge="1">
          <mxGeometry relative="1" as="geometry" />
        </mxCell>
        <mxCell id="FXp_Wr4skeSgav2R6Piw-47" style="edgeStyle=orthogonalEdgeStyle;rounded=0;orthogonalLoop=1;jettySize=auto;html=1;exitX=0;exitY=0.5;exitDx=0;exitDy=0;entryX=0.5;entryY=0;entryDx=0;entryDy=0;dashed=1;" parent="WIyWlLk6GJQsqaUBKTNV-1" source="FXp_Wr4skeSgav2R6Piw-45" target="FXp_Wr4skeSgav2R6Piw-22" edge="1">
          <mxGeometry relative="1" as="geometry" />
        </mxCell>
        <mxCell id="FXp_Wr4skeSgav2R6Piw-48" style="edgeStyle=orthogonalEdgeStyle;rounded=0;orthogonalLoop=1;jettySize=auto;html=1;exitX=0;exitY=0.5;exitDx=0;exitDy=0;entryX=1;entryY=0.5;entryDx=0;entryDy=0;dashed=1;" parent="WIyWlLk6GJQsqaUBKTNV-1" source="FXp_Wr4skeSgav2R6Piw-25" target="FXp_Wr4skeSgav2R6Piw-20" edge="1">
          <mxGeometry relative="1" as="geometry" />
        </mxCell>
        <mxCell id="JKRNtAv3qy4BUMIuR9V--14" style="edgeStyle=orthogonalEdgeStyle;rounded=0;orthogonalLoop=1;jettySize=auto;html=1;exitX=0.483;exitY=0.978;exitDx=0;exitDy=0;entryX=0.5;entryY=0;entryDx=0;entryDy=0;exitPerimeter=0;dashed=1;" parent="WIyWlLk6GJQsqaUBKTNV-1" source="FXp_Wr4skeSgav2R6Piw-52" target="JKRNtAv3qy4BUMIuR9V--0" edge="1">
          <mxGeometry relative="1" as="geometry" />
        </mxCell>
        <mxCell id="FXp_Wr4skeSgav2R6Piw-49" value="DirectorSolution" style="swimlane;fontStyle=1;align=center;verticalAlign=top;childLayout=stackLayout;horizontal=1;startSize=26;horizontalStack=0;resizeParent=1;resizeParentMax=0;resizeLast=0;collapsible=1;marginBottom=0;whiteSpace=wrap;html=1;" parent="WIyWlLk6GJQsqaUBKTNV-1" vertex="1">
          <mxGeometry x="-1120" y="170" width="160" height="80" as="geometry" />
        </mxCell>
        <mxCell id="FXp_Wr4skeSgav2R6Piw-51" value="" style="line;strokeWidth=1;fillColor=none;align=left;verticalAlign=middle;spacingTop=-1;spacingLeft=3;spacingRight=3;rotatable=0;labelPosition=right;points=[];portConstraint=eastwest;strokeColor=inherit;" parent="FXp_Wr4skeSgav2R6Piw-49" vertex="1">
          <mxGeometry y="26" width="160" height="8" as="geometry" />
        </mxCell>
        <mxCell id="FXp_Wr4skeSgav2R6Piw-52" value="+ register()&lt;div&gt;+ create()&lt;/div&gt;" style="text;strokeColor=none;fillColor=none;align=left;verticalAlign=top;spacingLeft=4;spacingRight=4;overflow=hidden;rotatable=0;points=[[0,0.5],[1,0.5]];portConstraint=eastwest;whiteSpace=wrap;html=1;" parent="FXp_Wr4skeSgav2R6Piw-49" vertex="1">
          <mxGeometry y="34" width="160" height="46" as="geometry" />
        </mxCell>
        <mxCell id="FXp_Wr4skeSgav2R6Piw-53" style="edgeStyle=orthogonalEdgeStyle;rounded=0;orthogonalLoop=1;jettySize=auto;html=1;entryX=0.493;entryY=1;entryDx=0;entryDy=0;entryPerimeter=0;endArrow=diamondThin;endFill=0;endSize=18;" parent="WIyWlLk6GJQsqaUBKTNV-1" source="FXp_Wr4skeSgav2R6Piw-49" target="VUxs2TTutxwEe3Bsk4AE-7" edge="1">
          <mxGeometry relative="1" as="geometry" />
        </mxCell>
        <mxCell id="FXp_Wr4skeSgav2R6Piw-54" value="BaseDirector" style="swimlane;fontStyle=1;align=center;verticalAlign=top;childLayout=stackLayout;horizontal=1;startSize=26;horizontalStack=0;resizeParent=1;resizeParentMax=0;resizeLast=0;collapsible=1;marginBottom=0;whiteSpace=wrap;html=1;" parent="WIyWlLk6GJQsqaUBKTNV-1" vertex="1">
          <mxGeometry x="-1210" y="690" width="160" height="70" as="geometry" />
        </mxCell>
        <mxCell id="FXp_Wr4skeSgav2R6Piw-56" value="" style="line;strokeWidth=1;fillColor=none;align=left;verticalAlign=middle;spacingTop=-1;spacingLeft=3;spacingRight=3;rotatable=0;labelPosition=right;points=[];portConstraint=eastwest;strokeColor=inherit;" parent="FXp_Wr4skeSgav2R6Piw-54" vertex="1">
          <mxGeometry y="26" width="160" height="8" as="geometry" />
        </mxCell>
        <mxCell id="FXp_Wr4skeSgav2R6Piw-57" value="+ create()&lt;div&gt;+ get()&lt;/div&gt;" style="text;strokeColor=none;fillColor=none;align=left;verticalAlign=top;spacingLeft=4;spacingRight=4;overflow=hidden;rotatable=0;points=[[0,0.5],[1,0.5]];portConstraint=eastwest;whiteSpace=wrap;html=1;" parent="FXp_Wr4skeSgav2R6Piw-54" vertex="1">
          <mxGeometry y="34" width="160" height="36" as="geometry" />
        </mxCell>
        <mxCell id="2jpewVYhPisrA6c5Opwv-0" value="BaseBoneModelDirector" style="swimlane;fontStyle=1;align=center;verticalAlign=top;childLayout=stackLayout;horizontal=1;startSize=26;horizontalStack=0;resizeParent=1;resizeParentMax=0;resizeLast=0;collapsible=1;marginBottom=0;whiteSpace=wrap;html=1;" parent="WIyWlLk6GJQsqaUBKTNV-1" vertex="1">
          <mxGeometry x="-1210" y="810" width="160" height="70" as="geometry" />
        </mxCell>
        <mxCell id="2jpewVYhPisrA6c5Opwv-2" value="" style="line;strokeWidth=1;fillColor=none;align=left;verticalAlign=middle;spacingTop=-1;spacingLeft=3;spacingRight=3;rotatable=0;labelPosition=right;points=[];portConstraint=eastwest;strokeColor=inherit;" parent="2jpewVYhPisrA6c5Opwv-0" vertex="1">
          <mxGeometry y="26" width="160" height="8" as="geometry" />
        </mxCell>
        <mxCell id="2jpewVYhPisrA6c5Opwv-3" value="+ create()&lt;div&gt;+ get()&lt;/div&gt;" style="text;strokeColor=none;fillColor=none;align=left;verticalAlign=top;spacingLeft=4;spacingRight=4;overflow=hidden;rotatable=0;points=[[0,0.5],[1,0.5]];portConstraint=eastwest;whiteSpace=wrap;html=1;" parent="2jpewVYhPisrA6c5Opwv-0" vertex="1">
          <mxGeometry y="34" width="160" height="36" as="geometry" />
        </mxCell>
        <mxCell id="2jpewVYhPisrA6c5Opwv-4" style="edgeStyle=orthogonalEdgeStyle;rounded=0;orthogonalLoop=1;jettySize=auto;html=1;entryX=0.496;entryY=0.982;entryDx=0;entryDy=0;entryPerimeter=0;" parent="WIyWlLk6GJQsqaUBKTNV-1" source="2jpewVYhPisrA6c5Opwv-0" target="FXp_Wr4skeSgav2R6Piw-57" edge="1">
          <mxGeometry relative="1" as="geometry" />
        </mxCell>
        <mxCell id="2jpewVYhPisrA6c5Opwv-5" style="edgeStyle=orthogonalEdgeStyle;rounded=0;orthogonalLoop=1;jettySize=auto;html=1;entryX=0.506;entryY=1;entryDx=0;entryDy=0;entryPerimeter=0;" parent="WIyWlLk6GJQsqaUBKTNV-1" source="msSt4nV4h8XotmUGHWJ2-70" target="2jpewVYhPisrA6c5Opwv-3" edge="1">
          <mxGeometry relative="1" as="geometry" />
        </mxCell>
        <mxCell id="2jpewVYhPisrA6c5Opwv-7" value="MatrixBoneModelDirector" style="swimlane;fontStyle=1;align=center;verticalAlign=top;childLayout=stackLayout;horizontal=1;startSize=26;horizontalStack=0;resizeParent=1;resizeParentMax=0;resizeLast=0;collapsible=1;marginBottom=0;whiteSpace=wrap;html=1;" parent="WIyWlLk6GJQsqaUBKTNV-1" vertex="1">
          <mxGeometry x="-1210" y="990" width="160" height="80" as="geometry" />
        </mxCell>
        <mxCell id="2jpewVYhPisrA6c5Opwv-8" value="" style="line;strokeWidth=1;fillColor=none;align=left;verticalAlign=middle;spacingTop=-1;spacingLeft=3;spacingRight=3;rotatable=0;labelPosition=right;points=[];portConstraint=eastwest;strokeColor=inherit;" parent="2jpewVYhPisrA6c5Opwv-7" vertex="1">
          <mxGeometry y="26" width="160" height="8" as="geometry" />
        </mxCell>
        <mxCell id="2jpewVYhPisrA6c5Opwv-9" value="&lt;div&gt;+ create()&lt;/div&gt;&lt;div&gt;+ get()&lt;/div&gt;" style="text;strokeColor=none;fillColor=none;align=left;verticalAlign=top;spacingLeft=4;spacingRight=4;overflow=hidden;rotatable=0;points=[[0,0.5],[1,0.5]];portConstraint=eastwest;whiteSpace=wrap;html=1;" parent="2jpewVYhPisrA6c5Opwv-7" vertex="1">
          <mxGeometry y="34" width="160" height="46" as="geometry" />
        </mxCell>
        <mxCell id="2jpewVYhPisrA6c5Opwv-10" style="edgeStyle=orthogonalEdgeStyle;rounded=0;orthogonalLoop=1;jettySize=auto;html=1;entryX=0.498;entryY=1.026;entryDx=0;entryDy=0;entryPerimeter=0;" parent="WIyWlLk6GJQsqaUBKTNV-1" source="2jpewVYhPisrA6c5Opwv-7" target="2jpewVYhPisrA6c5Opwv-3" edge="1">
          <mxGeometry relative="1" as="geometry" />
        </mxCell>
        <mxCell id="JKRNtAv3qy4BUMIuR9V--13" style="edgeStyle=orthogonalEdgeStyle;rounded=0;orthogonalLoop=1;jettySize=auto;html=1;exitX=0.549;exitY=1.111;exitDx=0;exitDy=0;entryX=0.5;entryY=0;entryDx=0;entryDy=0;exitPerimeter=0;dashed=1;" parent="WIyWlLk6GJQsqaUBKTNV-1" source="JKRNtAv3qy4BUMIuR9V--3" target="FXp_Wr4skeSgav2R6Piw-54" edge="1">
          <mxGeometry relative="1" as="geometry">
            <Array as="points">
              <mxPoint x="-1032" y="535" />
              <mxPoint x="-1130" y="535" />
            </Array>
          </mxGeometry>
        </mxCell>
        <mxCell id="JKRNtAv3qy4BUMIuR9V--0" value="BaseDirectorCreator" style="swimlane;fontStyle=1;align=center;verticalAlign=top;childLayout=stackLayout;horizontal=1;startSize=26;horizontalStack=0;resizeParent=1;resizeParentMax=0;resizeLast=0;collapsible=1;marginBottom=0;whiteSpace=wrap;html=1;" parent="WIyWlLk6GJQsqaUBKTNV-1" vertex="1">
          <mxGeometry x="-1120" y="320" width="160" height="60" as="geometry" />
        </mxCell>
        <mxCell id="JKRNtAv3qy4BUMIuR9V--2" value="" style="line;strokeWidth=1;fillColor=none;align=left;verticalAlign=middle;spacingTop=-1;spacingLeft=3;spacingRight=3;rotatable=0;labelPosition=right;points=[];portConstraint=eastwest;strokeColor=inherit;" parent="JKRNtAv3qy4BUMIuR9V--0" vertex="1">
          <mxGeometry y="26" width="160" height="8" as="geometry" />
        </mxCell>
        <mxCell id="JKRNtAv3qy4BUMIuR9V--3" value="+ create()" style="text;strokeColor=none;fillColor=none;align=left;verticalAlign=top;spacingLeft=4;spacingRight=4;overflow=hidden;rotatable=0;points=[[0,0.5],[1,0.5]];portConstraint=eastwest;whiteSpace=wrap;html=1;" parent="JKRNtAv3qy4BUMIuR9V--0" vertex="1">
          <mxGeometry y="34" width="160" height="26" as="geometry" />
        </mxCell>
        <mxCell id="JKRNtAv3qy4BUMIuR9V--8" style="edgeStyle=orthogonalEdgeStyle;rounded=0;orthogonalLoop=1;jettySize=auto;html=1;entryX=0;entryY=0.5;entryDx=0;entryDy=0;" parent="WIyWlLk6GJQsqaUBKTNV-1" source="JKRNtAv3qy4BUMIuR9V--4" target="JKRNtAv3qy4BUMIuR9V--3" edge="1">
          <mxGeometry relative="1" as="geometry" />
        </mxCell>
        <mxCell id="JKRNtAv3qy4BUMIuR9V--4" value="ListBoneModelDirectorCreator" style="swimlane;fontStyle=1;align=center;verticalAlign=top;childLayout=stackLayout;horizontal=1;startSize=26;horizontalStack=0;resizeParent=1;resizeParentMax=0;resizeLast=0;collapsible=1;marginBottom=0;whiteSpace=wrap;html=1;" parent="WIyWlLk6GJQsqaUBKTNV-1" vertex="1">
          <mxGeometry x="-1320" y="434" width="190" height="60" as="geometry" />
        </mxCell>
        <mxCell id="JKRNtAv3qy4BUMIuR9V--6" value="" style="line;strokeWidth=1;fillColor=none;align=left;verticalAlign=middle;spacingTop=-1;spacingLeft=3;spacingRight=3;rotatable=0;labelPosition=right;points=[];portConstraint=eastwest;strokeColor=inherit;" parent="JKRNtAv3qy4BUMIuR9V--4" vertex="1">
          <mxGeometry y="26" width="190" height="8" as="geometry" />
        </mxCell>
        <mxCell id="JKRNtAv3qy4BUMIuR9V--7" value="+ create()" style="text;strokeColor=none;fillColor=none;align=left;verticalAlign=top;spacingLeft=4;spacingRight=4;overflow=hidden;rotatable=0;points=[[0,0.5],[1,0.5]];portConstraint=eastwest;whiteSpace=wrap;html=1;" parent="JKRNtAv3qy4BUMIuR9V--4" vertex="1">
          <mxGeometry y="34" width="190" height="26" as="geometry" />
        </mxCell>
        <mxCell id="JKRNtAv3qy4BUMIuR9V--12" style="edgeStyle=orthogonalEdgeStyle;rounded=0;orthogonalLoop=1;jettySize=auto;html=1;entryX=1;entryY=0.5;entryDx=0;entryDy=0;" parent="WIyWlLk6GJQsqaUBKTNV-1" source="JKRNtAv3qy4BUMIuR9V--9" target="JKRNtAv3qy4BUMIuR9V--3" edge="1">
          <mxGeometry relative="1" as="geometry" />
        </mxCell>
        <mxCell id="JKRNtAv3qy4BUMIuR9V--9" value="MatrixBoneModelDirectorCreator" style="swimlane;fontStyle=1;align=center;verticalAlign=top;childLayout=stackLayout;horizontal=1;startSize=26;horizontalStack=0;resizeParent=1;resizeParentMax=0;resizeLast=0;collapsible=1;marginBottom=0;whiteSpace=wrap;html=1;" parent="WIyWlLk6GJQsqaUBKTNV-1" vertex="1">
          <mxGeometry x="-950" y="444" width="190" height="60" as="geometry" />
        </mxCell>
        <mxCell id="JKRNtAv3qy4BUMIuR9V--10" value="" style="line;strokeWidth=1;fillColor=none;align=left;verticalAlign=middle;spacingTop=-1;spacingLeft=3;spacingRight=3;rotatable=0;labelPosition=right;points=[];portConstraint=eastwest;strokeColor=inherit;" parent="JKRNtAv3qy4BUMIuR9V--9" vertex="1">
          <mxGeometry y="26" width="190" height="8" as="geometry" />
        </mxCell>
        <mxCell id="JKRNtAv3qy4BUMIuR9V--11" value="+ create()" style="text;strokeColor=none;fillColor=none;align=left;verticalAlign=top;spacingLeft=4;spacingRight=4;overflow=hidden;rotatable=0;points=[[0,0.5],[1,0.5]];portConstraint=eastwest;whiteSpace=wrap;html=1;" parent="JKRNtAv3qy4BUMIuR9V--9" vertex="1">
          <mxGeometry y="34" width="190" height="26" as="geometry" />
        </mxCell>
        <mxCell id="5iQKdKt0PGuIee_quAc8-10" style="edgeStyle=orthogonalEdgeStyle;rounded=1;orthogonalLoop=1;jettySize=auto;html=1;exitX=0.5;exitY=0;exitDx=0;exitDy=0;entryX=0.781;entryY=0.119;entryDx=0;entryDy=0;entryPerimeter=0;curved=0;" edge="1" parent="WIyWlLk6GJQsqaUBKTNV-1" source="5iQKdKt0PGuIee_quAc8-1" target="VUxs2TTutxwEe3Bsk4AE-122">
          <mxGeometry relative="1" as="geometry">
            <mxPoint x="1890" y="-710" as="targetPoint" />
            <Array as="points">
              <mxPoint x="2760" y="-690" />
              <mxPoint x="1120" y="-690" />
            </Array>
          </mxGeometry>
        </mxCell>
        <mxCell id="5iQKdKt0PGuIee_quAc8-1" value="BaseDrawCommand" style="swimlane;fontStyle=1;align=center;verticalAlign=top;childLayout=stackLayout;horizontal=1;startSize=26;horizontalStack=0;resizeParent=1;resizeParentMax=0;resizeLast=0;collapsible=1;marginBottom=0;whiteSpace=wrap;html=1;" vertex="1" parent="WIyWlLk6GJQsqaUBKTNV-1">
          <mxGeometry x="2680" y="-680" width="160" height="70" as="geometry" />
        </mxCell>
        <mxCell id="5iQKdKt0PGuIee_quAc8-2" value="" style="line;strokeWidth=1;fillColor=none;align=left;verticalAlign=middle;spacingTop=-1;spacingLeft=3;spacingRight=3;rotatable=0;labelPosition=right;points=[];portConstraint=eastwest;strokeColor=inherit;" vertex="1" parent="5iQKdKt0PGuIee_quAc8-1">
          <mxGeometry y="26" width="160" height="8" as="geometry" />
        </mxCell>
        <mxCell id="5iQKdKt0PGuIee_quAc8-3" value="+ execute()&lt;div&gt;+ getDescription()&lt;br&gt;&lt;/div&gt;" style="text;strokeColor=none;fillColor=none;align=left;verticalAlign=top;spacingLeft=4;spacingRight=4;overflow=hidden;rotatable=0;points=[[0,0.5],[1,0.5]];portConstraint=eastwest;whiteSpace=wrap;html=1;" vertex="1" parent="5iQKdKt0PGuIee_quAc8-1">
          <mxGeometry y="34" width="160" height="36" as="geometry" />
        </mxCell>
        <mxCell id="5iQKdKt0PGuIee_quAc8-4" value="" style="shape=waypoint;sketch=0;fillStyle=solid;size=6;pointerEvents=1;points=[];fillColor=none;resizable=0;rotatable=0;perimeter=centerPerimeter;snapToPoint=1;" vertex="1" parent="WIyWlLk6GJQsqaUBKTNV-1">
          <mxGeometry x="2750" y="-570" width="20" height="20" as="geometry" />
        </mxCell>
        <mxCell id="5iQKdKt0PGuIee_quAc8-5" value="DrawSceneCommand" style="swimlane;fontStyle=1;align=center;verticalAlign=top;childLayout=stackLayout;horizontal=1;startSize=26;horizontalStack=0;resizeParent=1;resizeParentMax=0;resizeLast=0;collapsible=1;marginBottom=0;whiteSpace=wrap;html=1;" vertex="1" parent="WIyWlLk6GJQsqaUBKTNV-1">
          <mxGeometry x="2560" y="-590" width="160" height="70" as="geometry" />
        </mxCell>
        <mxCell id="5iQKdKt0PGuIee_quAc8-6" value="" style="line;strokeWidth=1;fillColor=none;align=left;verticalAlign=middle;spacingTop=-1;spacingLeft=3;spacingRight=3;rotatable=0;labelPosition=right;points=[];portConstraint=eastwest;strokeColor=inherit;" vertex="1" parent="5iQKdKt0PGuIee_quAc8-5">
          <mxGeometry y="26" width="160" height="8" as="geometry" />
        </mxCell>
        <mxCell id="5iQKdKt0PGuIee_quAc8-7" value="+ execute()&lt;div&gt;+ getDescription()&lt;br&gt;&lt;/div&gt;" style="text;strokeColor=none;fillColor=none;align=left;verticalAlign=top;spacingLeft=4;spacingRight=4;overflow=hidden;rotatable=0;points=[[0,0.5],[1,0.5]];portConstraint=eastwest;whiteSpace=wrap;html=1;" vertex="1" parent="5iQKdKt0PGuIee_quAc8-5">
          <mxGeometry y="34" width="160" height="36" as="geometry" />
        </mxCell>
        <mxCell id="5iQKdKt0PGuIee_quAc8-8" style="edgeStyle=orthogonalEdgeStyle;rounded=1;orthogonalLoop=1;jettySize=auto;html=1;exitX=1;exitY=0.5;exitDx=0;exitDy=0;entryX=0.024;entryY=0.241;entryDx=0;entryDy=0;entryPerimeter=0;curved=0;endArrow=none;endFill=0;" edge="1" parent="WIyWlLk6GJQsqaUBKTNV-1" source="5iQKdKt0PGuIee_quAc8-5" target="5iQKdKt0PGuIee_quAc8-4">
          <mxGeometry relative="1" as="geometry" />
        </mxCell>
        <mxCell id="5iQKdKt0PGuIee_quAc8-9" style="edgeStyle=orthogonalEdgeStyle;rounded=0;orthogonalLoop=1;jettySize=auto;html=1;entryX=0.5;entryY=1;entryDx=0;entryDy=0;entryPerimeter=0;" edge="1" parent="WIyWlLk6GJQsqaUBKTNV-1" source="5iQKdKt0PGuIee_quAc8-4" target="5iQKdKt0PGuIee_quAc8-3">
          <mxGeometry relative="1" as="geometry" />
        </mxCell>
      </root>
    </mxGraphModel>
  </diagram>
</mxfile>
